<?xml version="1.0" standalone="no"?>
<!DOCTYPE svg PUBLIC "-//W3C//DTD SVG 1.1//EN" "http://www.w3.org/Graphics/SVG/1.1/DTD/svg11.dtd" >
<svg xmlns="http://www.w3.org/2000/svg" xmlns:xlink="http://www.w3.org/1999/xlink" version="1.1">
<metadata></metadata>
<defs>
<font id="europecondensedcregular" horiz-adv-x="890" >
<font-face units-per-em="2048" ascent="1554" descent="-494" />
<missing-glyph horiz-adv-x="526" />
<glyph horiz-adv-x="0" />
<glyph horiz-adv-x="682" />
<glyph unicode=" "  horiz-adv-x="526" />
<glyph unicode="&#x09;" horiz-adv-x="526" />
<glyph unicode="&#xa0;" horiz-adv-x="526" />
<glyph unicode="!" horiz-adv-x="528" d="M193 0v203h153v-203h-153zM193 403v1131h153v-1131h-153z" />
<glyph unicode="&#x22;" horiz-adv-x="585" d="M98 922v569h107v-569h-107zM381 922v569h106v-569h-106z" />
<glyph unicode="#" horiz-adv-x="1628" d="M121 496l41 110h338l102 287h-364l34 111h369l176 499h131l-174 -499h273l180 499h131l-176 -499h325l-39 -111h-327l-103 -287h353l-37 -110h-353l-176 -496h-133l178 496h-276l-180 -496h-131l176 496h-338zM633 606h274l101 287h-275z" />
<glyph unicode="$" horiz-adv-x="1060" d="M119 330v131h149v-105q0 -140 43 -192.5t166 -52.5h8v604q-200 22 -272 92t-72 250v139q0 71 10.5 125t33 91t50.5 62.5t69.5 41.5t82.5 24.5t98 13.5v127h105v-127q198 -19 272 -94.5t74 -253.5v-90h-148v62q0 138 -41 191t-157 56v-569q104 -16 170 -43t105.5 -76.5 t55 -116t15.5 -169.5q0 -78 -3 -130t-11 -103.5t-24 -83.5t-40.5 -61t-62 -45.5t-87.5 -28.5t-118 -17v-170h-105v170q-207 9 -286.5 84.5t-79.5 263.5zM289 1053q0 -91 42 -132.5t154 -56.5v561q-112 -7 -154 -53t-42 -155v-164zM590 111q114 9 156 56.5t42 164.5v174 q0 99 -43.5 143t-154.5 53v-591z" />
<glyph unicode="%" horiz-adv-x="1722" d="M92 944v236q0 192 49 275t185 83h114q133 0 182.5 -83.5t49.5 -274.5v-236q0 -192 -49.5 -275t-182.5 -83h-114q-136 0 -185 82.5t-49 275.5zM225 956q0 -45 1 -73t4.5 -57t10.5 -45.5t18 -32.5t28.5 -23t40.5 -11.5t55 -4.5q37 0 62.5 4.5t43 18.5t27.5 30t15 48 t6.5 62.5t1.5 83.5v211q0 63 -2 97.5t-10.5 68.5t-25.5 49t-45.5 24t-72.5 9q-37 0 -62.5 -4t-43.5 -17t-28 -28t-15.5 -45.5t-7 -60.5t-1.5 -82v-222zM446 -18l701 1570h127l-701 -1570h-127zM1049 350v236q0 192 49 275t184 83h115q133 0 182 -83t49 -275v-236 q0 -193 -49 -275.5t-182 -82.5h-115q-136 0 -184.5 82.5t-48.5 275.5zM1182 362q0 -53 1.5 -83.5t6.5 -62.5t15 -48t28 -29.5t43.5 -18.5t62.5 -5t62.5 4.5t43 18.5t27.5 30t15 48t6.5 62.5t1.5 83.5v211q0 63 -2 97.5t-10.5 68.5t-25.5 49t-45.5 24t-72.5 9q-45 0 -73 -8 t-45.5 -21.5t-25.5 -45.5t-10.5 -66t-2.5 -96v-222z" />
<glyph unicode="&#x26;" horiz-adv-x="1099" d="M115 348v246q0 130 55 209t156 94l-62 78q-30 39 -40.5 54.5t-28.5 51t-24.5 75.5t-6.5 95q0 154 92.5 227.5t284.5 73.5q100 0 162.5 -16t100 -56t52 -99.5t14.5 -155.5v-88h-133v77q0 119 -37 160t-157 41q-118 0 -171 -38t-53 -128q0 -75 54 -149l436 -576v336h131 v-485l223 -279l-108 -104l-152 190q-33 -111 -118 -155.5t-248 -44.5q-237 0 -329.5 77.5t-92.5 288.5zM268 399q0 -168 59.5 -231.5t219.5 -63.5q130 0 189 47t59 152v6l-363 463q-3 0 -9.5 1t-10.5 1q-67 0 -105.5 -59t-38.5 -168v-148z" />
<glyph unicode="'" horiz-adv-x="303" d="M98 922v569h107v-569h-107z" />
<glyph unicode="(" horiz-adv-x="665" d="M199 510v512q0 147 15 242.5t54 162.5t105.5 96t169.5 29v-135q-54 0 -89 -13.5t-57 -37.5t-33 -71.5t-14.5 -99.5t-3.5 -138v-582q0 -61 1.5 -102t6 -82.5t13.5 -67t23 -48.5t35.5 -34.5t50 -18.5t67.5 -7v-133h-11q-99 0 -163.5 28.5t-102 95t-52.5 162t-15 242.5z" />
<glyph unicode=")" horiz-adv-x="665" d="M123 -18v133q54 0 89.5 13.5t57 37t32.5 71.5t14 99.5t3 138.5v582q0 87 -3.5 138.5t-14.5 99.5t-32.5 71.5t-56.5 37t-89 13.5v135q103 0 169.5 -29t105.5 -96t54 -162.5t15 -242.5v-512q0 -147 -15 -242.5t-53 -162t-102.5 -95t-163.5 -28.5h-10z" />
<glyph unicode="*" horiz-adv-x="825" d="M29 1098v127h258v-127h-258zM168 823l125 256l108 -67l-125 -258zM170 1501l106 70l127 -258l-108 -68zM408 1313l127 258l106 -70l-125 -256zM410 1012l108 67l125 -256l-108 -69zM532 1098v127h261v-127h-261z" />
<glyph unicode="+" horiz-adv-x="1763" d="M262 580v102h569v580h103v-580h567v-102h-567v-580h-103v580h-569z" />
<glyph unicode="," horiz-adv-x="528" d="M176 -143q40 1 55 17t15 54v72h-60v203h154v-238q0 -101 -29 -146.5t-102 -45.5q-17 0 -33 4v80z" />
<glyph unicode="-" horiz-adv-x="636" d="M88 508v127h461v-127h-461z" />
<glyph unicode="." horiz-adv-x="528" d="M186 0v203h154v-203h-154z" />
<glyph unicode="/" horiz-adv-x="507" d="M-82 -195l500 1751h114l-499 -1751h-115z" />
<glyph unicode="0" horiz-adv-x="1058" d="M109 500v532q0 139 15.5 232.5t54 160t104.5 97t166 30.5h163q100 0 166 -30.5t104.5 -97t54 -160t15.5 -232.5v-532q0 -139 -15.5 -232t-54 -159.5t-104.5 -96.5t-166 -30h-163q-100 0 -166 30t-104.5 96.5t-54 159.5t-15.5 232zM262 496q0 -88 4 -142t16.5 -102.5 t37 -73.5t65 -39t100.5 -14h88q61 0 101.5 14t65.5 39t38 73.5t17 102.5t4 142v540q0 89 -4 143t-16.5 103t-37 74t-65 39t-101.5 14h-90q-51 0 -87 -8.5t-61 -29.5t-39.5 -47t-22.5 -72.5t-10.5 -94t-2.5 -121.5v-540z" />
<glyph unicode="1" horiz-adv-x="1058" d="M141 1067l379 467h176v-1534h-143v1368l-317 -391z" />
<glyph unicode="2" horiz-adv-x="1058" d="M111 0v201q0 97 12 169t28.5 114.5t47 73.5t54.5 44.5t64 30.5l324 131q79 32 103 89t24 185v121q0 137 -45 193.5t-154 56.5h-82q-56 0 -92 -11t-59 -31.5t-34.5 -61t-15 -85.5t-3.5 -120v-53h-154v43q0 126 15.5 209t54 142t104.5 85t166 26h125q100 0 165 -24 t103.5 -78.5t54 -132.5t15.5 -195v-153q0 -81 -17 -139t-53 -97t-79 -64t-109 -48l-240 -86q-94 -34 -137 -112t-43 -222v-54h668v-147h-811z" />
<glyph unicode="3" horiz-adv-x="1058" d="M113 442v62h153v-72q0 -92 6.5 -144.5t28.5 -92.5t62.5 -55t109.5 -15h84q110 0 156.5 57.5t46.5 192.5v121q0 127 -45 173t-176 46h-103v137h111q112 0 160.5 47.5t48.5 157.5v102q0 135 -44.5 192.5t-148.5 57.5h-82q-44 0 -75 -6.5t-52.5 -23.5t-34 -38.5t-19.5 -60 t-9 -78.5t-2 -102v-29h-148v21q0 247 70 353.5t256 106.5h119q184 0 253.5 -96t69.5 -321q0 -162 -37.5 -237t-154.5 -103q115 -40 161 -120.5t46 -221.5q0 -132 -14 -215.5t-51.5 -144t-104.5 -86t-172 -25.5h-125q-197 0 -270.5 105t-73.5 355z" />
<glyph unicode="4" horiz-adv-x="1058" d="M84 350v215l551 969h207v-1040h145v-144h-145v-350h-144v350h-614zM197 494h501v878z" />
<glyph unicode="5" horiz-adv-x="1058" d="M129 399v41h152v-32q0 -164 39 -223.5t163 -59.5h84q107 0 152 57.5t45 194.5v172q0 75 -2.5 120.5t-11.5 89.5t-24.5 67t-43.5 41.5t-67.5 25t-96.5 6.5q-197 0 -221 -139h-131v774h713v-143h-570v-461q62 112 262 112q186 0 271.5 -98.5t85.5 -312.5v-176 q0 -105 -9 -178t-31 -132t-60.5 -93.5t-97 -52t-140.5 -17.5h-125q-181 0 -258.5 98t-77.5 319z" />
<glyph unicode="6" horiz-adv-x="1058" d="M111 442v650q0 100 9.5 172t33 128.5t62.5 90.5t97.5 51.5t139.5 17.5h145q165 0 245.5 -91.5t80.5 -280.5v-15h-146v19q0 124 -45 174.5t-151 50.5h-121q-56 0 -92.5 -11t-59.5 -31.5t-35 -60.5t-16 -86t-4 -120v-289q67 74 144 102.5t186 28.5q193 0 278.5 -81.5 t85.5 -270.5v-148q0 -100 -9.5 -172t-33 -128.5t-62.5 -90.5t-97.5 -51.5t-139.5 -17.5h-153q-81 0 -139.5 17.5t-97.5 51.5t-62.5 90.5t-33 128.5t-9.5 172zM264 430q0 -74 4 -119t15.5 -84.5t34.5 -59.5t59.5 -31t91.5 -11h121q69 0 111 15t65.5 54t31 92.5t7.5 143.5v55 q0 91 -7 144t-29.5 92.5t-64 54.5t-110.5 15h-125q-46 0 -78.5 -6.5t-55.5 -23.5t-37 -39t-21.5 -59.5t-10 -78t-2.5 -101.5v-53z" />
<glyph unicode="7" horiz-adv-x="1058" d="M129 1391v143h764v-231l-518 -1303h-160l555 1391h-641z" />
<glyph unicode="8" horiz-adv-x="1058" d="M102 455q0 140 47.5 220t163.5 120q-118 28 -157 103t-39 235q0 225 70.5 322t254.5 97h170q185 0 257.5 -97.5t72.5 -321.5q0 -158 -41.5 -234t-159.5 -104q117 -41 166 -120.5t49 -219.5q0 -131 -15 -215t-54 -145t-107 -87t-174 -26h-157q-106 0 -173.5 26t-106 86.5 t-53 144.5t-14.5 216zM266 371q0 -137 47.5 -194.5t159.5 -57.5h109q111 0 161 59t50 193v123q0 119 -52.5 170t-175.5 51h-76q-122 0 -172.5 -51t-50.5 -170v-123zM270 1065q0 -109 48.5 -156t158.5 -47h101q111 0 160.5 47.5t49.5 155.5v149q0 109 -49 155t-161 46h-101 q-111 0 -159 -46t-48 -155v-149z" />
<glyph unicode="9" horiz-adv-x="1058" d="M96 352v17h148v-19q0 -124 43 -174.5t151 -50.5h152q56 0 92.5 11t59.5 31t35 59.5t16 85.5t4 120v305q-67 -74 -142.5 -101.5t-185.5 -27.5q-194 0 -280.5 80t-86.5 266v138q0 100 9.5 172t33 128.5t62.5 90.5t97.5 51.5t139.5 17.5h154q81 0 139.5 -17.5t97.5 -51.5 t62.5 -90.5t33 -128.5t9.5 -172v-650q0 -100 -9.5 -172t-33 -128.5t-62.5 -90.5t-97.5 -51.5t-139.5 -17.5h-176q-166 0 -246 90.5t-80 279.5zM256 1053q0 -74 3.5 -117t14.5 -82t33 -58t58 -29.5t92 -10.5h125q56 0 92 11t59 30.5t34.5 59t15 83.5t3.5 117v53 q0 74 -3.5 118t-15 83t-34.5 58t-59 29.5t-92 10.5h-125q-40 0 -69 -5t-51 -14t-36.5 -27.5t-23.5 -38.5t-13.5 -54.5t-6 -68.5t-1.5 -87v-61z" />
<glyph unicode=":" horiz-adv-x="575" d="M211 0v203h154v-203h-154zM211 868v203h154v-203h-154z" />
<glyph unicode=";" horiz-adv-x="575" d="M201 -143q39 1 54 16.5t15 54.5v72h-59v203h154v-238q0 -101 -29.5 -146.5t-102.5 -45.5q-16 0 -32 4v80zM211 868v203h154v-203h-154z" />
<glyph unicode="&#x3c;" horiz-adv-x="1763" d="M272 592v86l1219 500v-113l-1057 -430l1057 -428v-113z" />
<glyph unicode="=" horiz-adv-x="1763" d="M262 393v101h1239v-101h-1239zM262 776v101h1239v-101h-1239z" />
<glyph unicode="&#x3e;" horiz-adv-x="1763" d="M272 94v113l1057 428l-1057 430v113l1219 -500v-86z" />
<glyph unicode="?" horiz-adv-x="962" d="M70 1059v131q0 185 74.5 273.5t238.5 88.5h162q173 0 250 -80t77 -258v-153q0 -160 -54 -248t-189 -141q-101 -40 -128.5 -70.5t-27.5 -91.5v-109h-154v129q0 78 16.5 119.5t57.5 72t137 75.5q118 55 153.5 107.5t35.5 168.5v131q0 122 -41 163.5t-168 41.5h-107 q-102 0 -146 -47t-44 -152v-151h-143zM319 0v203h154v-203h-154z" />
<glyph unicode="@" horiz-adv-x="2117" d="M123 559q0 198 77.5 373.5t212.5 301.5t326.5 199.5t411.5 73.5q234 0 426 -86t305 -246.5t113 -365.5q0 -175 -69.5 -328.5t-202 -250.5t-298.5 -97q-200 0 -200 158q0 5 1 15.5t1 15.5q-108 -189 -303 -189q-158 0 -242 87t-84 253q0 158 65.5 288t175.5 203.5 t240 73.5q194 0 262 -170l62 131h98l-145 -581q-17 -76 -17 -94q0 -45 30 -71t83 -26q123 0 222.5 85t152.5 219t53 284q0 127 -53 237.5t-147 190.5t-231.5 126t-299.5 46q-203 0 -373.5 -67.5t-287 -185t-181.5 -279.5t-65 -348q0 -221 105 -389t289.5 -257.5t420.5 -89.5 q178 0 347 51.5t308 147.5l41 -57q-305 -228 -676 -228q-207 0 -382.5 58.5t-302 166t-198 267.5t-71.5 354zM727 465q0 -115 56.5 -180.5t156.5 -65.5q109 0 194.5 74.5t116.5 195.5l64 256q-20 97 -79 151t-144 54q-105 0 -189 -64t-130 -174.5t-46 -246.5z" />
<glyph unicode="A" horiz-adv-x="1032" d="M0 0l440 1534h176l416 -1534h-166l-86 330h-532l-96 -330h-152zM289 473h452l-217 854z" />
<glyph unicode="B" horiz-adv-x="1110" d="M127 0v1534h403q100 0 167 -7.5t123 -27.5t87 -56t47.5 -92t16.5 -137v-135q0 -110 -44 -173t-145 -97q114 -31 164.5 -105.5t50.5 -209.5v-148q0 -196 -100 -271t-338 -75h-432zM281 143h243q92 0 147 8t97 31t59 66.5t17 113.5v142q0 71 -17 116t-58.5 70t-98 34 t-146.5 9h-243v-590zM281 877h233q173 0 238 35t65 149v172q0 42 -12 70t-33 45.5t-60.5 27t-84 12.5t-113.5 3h-233v-514z" />
<glyph unicode="C" horiz-adv-x="1040" d="M113 465v567q0 271 92 395.5t305 124.5h82q209 0 298 -103.5t89 -338.5v-72h-164v19q0 194 -47 271t-180 77h-84q-71 0 -115.5 -19.5t-69.5 -67.5t-34 -113.5t-9 -172.5v-516q0 -72 1.5 -116.5t6.5 -91t15 -72t26 -49.5t41 -34.5t58.5 -17t79.5 -6.5h86q44 0 76 5.5 t56.5 16t40.5 31t26.5 45t16 64.5t7.5 82.5t2 105.5v37h164v-90q0 -227 -88 -335.5t-273 -108.5h-147q-89 0 -154 25t-104 66.5t-62 106t-30.5 131t-7.5 154.5z" />
<glyph unicode="D" horiz-adv-x="1159" d="M127 0v1534h387q153 0 253.5 -29t163.5 -96.5t89.5 -171t26.5 -260.5v-422q0 -157 -26.5 -260t-89.5 -170.5t-163.5 -96t-253.5 -28.5h-387zM283 143h200q88 0 151 8.5t108 30.5t72.5 51t42.5 77.5t20.5 102t5.5 132.5v428q0 86 -5.5 144t-22 108t-43.5 79t-72 50 t-106.5 29t-148.5 8h-202v-1248z" />
<glyph unicode="E" horiz-adv-x="870" d="M127 0v1534h686v-148h-532v-509h493v-144h-493v-586h532v-147h-686z" />
<glyph unicode="F" horiz-adv-x="808" d="M127 0v1534h661v-148h-507v-509h467v-144h-467v-733h-154z" />
<glyph unicode="G" horiz-adv-x="1126" d="M113 465v567q0 271 92.5 395.5t306.5 124.5h115q206 0 296.5 -100t90.5 -322v-53h-164q0 181 -48.5 254.5t-178.5 73.5h-117q-58 0 -98 -13.5t-66 -40t-40.5 -73.5t-20 -104t-5.5 -142v-516q0 -62 1 -103.5t5 -83.5t11 -68t19 -51t28.5 -38.5t40.5 -24t54.5 -14.5 t70.5 -4h131q41 0 71 4t54 15t40.5 23.5t28 38.5t18 51t10 68t4.5 83.5t1 103.5v100h-268v148h432v-299q0 -63 -4 -114t-14 -102t-27.5 -90t-45 -73.5t-64.5 -56.5t-89 -34.5t-116 -12.5h-195q-89 0 -154 24t-104.5 64.5t-62.5 104.5t-31 131.5t-8 158.5z" />
<glyph unicode="H" horiz-adv-x="1171" d="M127 0v1534h154v-657h610v657h153v-1534h-153v733h-610v-733h-154z" />
<glyph unicode="I" horiz-adv-x="419" d="M133 0v1534h154v-1534h-154z" />
<glyph unicode="J" horiz-adv-x="907" d="M31 338v180h153v-123q0 -155 43.5 -212.5t175.5 -57.5q133 0 178.5 58t45.5 212v1139h153v-1196q0 -203 -81 -279.5t-293 -76.5t-293.5 76.5t-81.5 279.5z" />
<glyph unicode="K" horiz-adv-x="1089" d="M127 0v1534h154v-657h79l488 657h172l-543 -727l613 -807h-193l-555 733h-61v-733h-154z" />
<glyph unicode="L" horiz-adv-x="753" d="M127 0v1534h154v-1387h452v-147h-606z" />
<glyph unicode="M" horiz-adv-x="1617" d="M127 0v1534h244l428 -1350l458 1350h234v-1534h-139v1403l-478 -1403h-153l-455 1403v-1403h-139z" />
<glyph unicode="N" horiz-adv-x="1198" d="M127 0v1534h225l570 -1364v1364h149v-1534h-235l-560 1339v-1339h-149z" />
<glyph unicode="O" horiz-adv-x="1153" d="M113 500v532q0 272 92 396t307 124h131q215 0 306 -124t91 -396v-532q0 -272 -91 -395t-306 -123h-131q-215 0 -307 123.5t-92 394.5zM276 500q0 -107 9.5 -172.5t37.5 -113t77 -66.5t128 -19h95q79 0 128.5 19t77.5 66t38 113t10 173v532q0 107 -9.5 173t-37 113.5 t-77 67t-128.5 19.5h-95q-79 0 -128.5 -19.5t-77.5 -67t-38 -113.5t-10 -173v-532z" />
<glyph unicode="P" horiz-adv-x="1073" d="M127 0v1534h414q102 0 168.5 -9t121 -32t84 -66t45 -108.5t15.5 -161.5v-178q0 -97 -15.5 -163.5t-45 -109.5t-84 -66.5t-121 -32.5t-168.5 -9h-260v-598h-154zM281 741h237q70 0 112 3.5t81 14t58.5 31.5t30.5 56t11 88v264q0 39 -5.5 67.5t-15 49.5t-29 34.5t-39.5 22 t-54.5 12.5t-66.5 5.5t-83 1.5h-237v-650z" />
<glyph unicode="Q" horiz-adv-x="1153" d="M113 500v532q0 272 91 396t306 124h131q214 0 306.5 -124.5t92.5 -395.5v-532q0 -160 -22 -248l123 -102l-76 -111l-104 86q-88 -143 -320 -143h-131q-215 0 -306 123t-91 395zM276 500q0 -107 10 -173t38 -113t77.5 -66t128.5 -19h93q164 0 213 98l-340 283l77 111 l297 -248q7 58 7 127v532q0 107 -10 173t-38 113.5t-77.5 67t-128.5 19.5h-93q-79 0 -128.5 -19.5t-77.5 -67t-38 -113.5t-10 -173v-532z" />
<glyph unicode="R" horiz-adv-x="1120" d="M127 0v1534h432q85 0 144.5 -5.5t111 -21.5t83 -42t54 -68.5t32 -100.5t9.5 -139v-147q0 -149 -55.5 -225t-177.5 -91q114 -22 168.5 -99.5t54.5 -219.5v-375h-154v307q0 93 -12 149.5t-45 92.5t-86.5 49.5t-142.5 13.5h-262v-612h-154zM281 760h256q59 0 96.5 2.5t74 11 t56.5 24t36.5 42t22.5 64t6 91.5v201q0 55 -11.5 91t-30 57t-58.5 31.5t-80 13t-112 2.5h-256v-631z" />
<glyph unicode="S" horiz-adv-x="1073" d="M98 420v78h160v-131q0 -133 44.5 -185.5t162.5 -52.5h151q111 0 153 46t42 161v133q0 52 -5 87t-26 61.5t-39 40.5t-69.5 26.5t-90 18t-126.5 16.5q-184 22 -256 87.5t-72 223.5v193q0 168 90 248.5t277 80.5h110q202 0 286.5 -90t84.5 -301v-47h-164v53 q0 133 -42.5 185.5t-160.5 52.5h-125q-111 0 -151.5 -45.5t-40.5 -161.5v-166q0 -54 19 -81t78.5 -47.5t189.5 -41.5q91 -14 151.5 -29.5t110.5 -40t78 -58.5t42.5 -82.5t14.5 -116.5v-222q0 -170 -89.5 -250.5t-277.5 -80.5h-137q-113 0 -184.5 23.5t-114 78.5t-58.5 134 t-16 202z" />
<glyph unicode="T" horiz-adv-x="841" d="M14 1386v148h813v-148h-329v-1386h-154v1386h-330z" />
<glyph unicode="U" horiz-adv-x="1107" d="M127 352v1182h154v-1106q0 -91 9.5 -144t37.5 -90.5t77 -51t132 -13.5h43q67 0 110 10t71 28.5t42 57t19 83.5t5 120v1106h154v-1182q0 -197 -96 -283.5t-314 -86.5h-34q-218 0 -314 86.5t-96 283.5z" />
<glyph unicode="V" horiz-adv-x="1005" d="M12 1534h164l318 -1329l346 1329h153l-415 -1534h-177z" />
<glyph unicode="W" horiz-adv-x="1595" d="M12 1534h152l272 -1337l287 1337h151l273 -1337l285 1337h151l-350 -1534h-178l-258 1231l-275 -1231h-178z" />
<glyph unicode="X" horiz-adv-x="952" d="M4 0l375 807l-348 727h164l288 -631l285 631h152l-347 -758l375 -776h-170l-311 680l-309 -680h-154z" />
<glyph unicode="Y" horiz-adv-x="944" d="M0 1534h170l309 -741l312 741h153l-387 -893v-641h-154v641z" />
<glyph unicode="Z" horiz-adv-x="866" d="M51 0v141l596 1245h-575v148h733v-143l-596 -1244h606v-147h-764z" />
<glyph unicode="[" horiz-adv-x="665" d="M233 -123v1780h279v-123h-141v-1534h141v-123h-279z" />
<glyph unicode="\" horiz-adv-x="507" d="M-25 1556h115l500 -1751h-115z" />
<glyph unicode="]" horiz-adv-x="665" d="M154 0h141v1534h-141v123h278v-1780h-278v123z" />
<glyph unicode="^" horiz-adv-x="2115" d="M434 932l551 573h143l549 -573h-147l-473 469l-475 -469h-148z" />
<glyph unicode="_" horiz-adv-x="1060" d="M0 -356h1061v-105h-1061v105z" />
<glyph unicode="`" horiz-adv-x="1058" d="M274 1550h185l215 -362h-111z" />
<glyph unicode="a" horiz-adv-x="866" d="M94 254v143q0 135 72.5 204t210.5 69q87 0 145.5 -21t95.5 -69v165q0 134 -35 178t-149 44q-88 0 -127 -30t-39 -106v-51h-141v49q0 141 75 203t238 62q181 0 248.5 -66.5t67.5 -245.5v-782h-138v98q-37 -65 -97 -90.5t-161 -25.5q-134 0 -200 66.5t-66 205.5zM238 313 q0 -109 39.5 -156.5t136.5 -47.5q118 0 163.5 51.5t45.5 175.5q0 121 -40 164t-153 43q-115 0 -153.5 -47.5t-38.5 -182.5z" />
<glyph unicode="b" d="M111 0v1561h137v-605q90 138 256 138q159 0 224 -110.5t65 -348.5v-164q0 -261 -62.5 -375t-222.5 -114q-89 0 -152.5 33.5t-115.5 109.5v-125h-129zM248 451q0 -184 45 -263t172 -79q105 0 144.5 78t39.5 257v185q0 178 -39.5 258t-144.5 80q-126 0 -171.5 -80.5 t-45.5 -263.5v-172z" />
<glyph unicode="c" horiz-adv-x="858" d="M98 412v254q0 238 78.5 333t276.5 95q168 0 242.5 -75t74.5 -245v-51h-143v18q0 118 -43 166.5t-146 48.5q-53 0 -87.5 -10t-56.5 -28.5t-33 -56t-15 -80.5t-4 -113v-256q0 -70 4 -114t15.5 -81.5t34.5 -57t58.5 -30t89.5 -10.5q120 0 160.5 50.5t40.5 184.5v43h143v-45 q0 -195 -80.5 -282.5t-256.5 -87.5q-197 0 -275 95.5t-78 334.5z" />
<glyph unicode="d" d="M98 471v164q0 238 65.5 348.5t225.5 110.5q164 0 254 -138v605h137v-1561h-127v125q-52 -76 -116.5 -109.5t-153.5 -33.5q-160 0 -222.5 114t-62.5 375zM242 442q0 -179 39.5 -256t144.5 -77q127 0 172 79t45 263v172q0 183 -45.5 263.5t-171.5 80.5q-105 0 -144.5 -79 t-39.5 -257v-189z" />
<glyph unicode="e" horiz-adv-x="899" d="M98 414v254q0 238 77.5 332t275.5 94q197 0 273.5 -94t76.5 -332v-160h-559v-98q0 -72 4 -115t15.5 -81t34.5 -56.5t60 -28.5t93 -10q126 0 174.5 38t48.5 144v33h129v-33q0 -171 -84 -245t-268 -74q-196 0 -273.5 97t-77.5 335zM242 635h422v78q0 145 -43.5 199.5 t-167.5 54.5q-123 0 -167 -54.5t-44 -199.5v-78z" />
<glyph unicode="f" horiz-adv-x="559" d="M29 944v127h131v193q0 155 69 226t220 71q5 0 83 -5v-122q-36 4 -75 4q-91 0 -125.5 -41t-34.5 -144v-182h235v-127h-235v-944h-137v944h-131z" />
<glyph unicode="g" d="M98 498v104q0 261 62.5 376.5t222.5 115.5q87 0 152 -36t118 -112v129h127v-1116q0 -194 -77 -275t-265 -81q-319 0 -319 223v53h139v-24q0 -67 42.5 -96t137.5 -29q47 0 80.5 5.5t56.5 20.5t36 33.5t20.5 52.5t9.5 68.5t2 89.5v178q-87 -135 -254 -135 q-160 0 -225.5 109t-65.5 346zM242 504q0 -180 37 -257t141 -77q127 0 175 79.5t48 260.5v111q0 185 -45.5 265.5t-171.5 80.5q-105 0 -144.5 -81t-39.5 -261v-121z" />
<glyph unicode="h" d="M111 0v1561h137v-596q86 129 252 129q153 0 216.5 -89t63.5 -286v-719h-137v682q0 152 -37.5 218.5t-136.5 66.5q-125 0 -173 -86.5t-48 -280.5v-600h-137z" />
<glyph unicode="i" horiz-adv-x="358" d="M111 0v1075h137v-1075h-137zM111 1280v180h137v-180h-137z" />
<glyph unicode="j" horiz-adv-x="358" d="M-8 -264h20q66 0 82.5 34t16.5 138v1167h137v-1165q0 -172 -41.5 -238.5t-165.5 -66.5q-22 0 -49 6v125zM111 1280v180h137v-180h-137z" />
<glyph unicode="k" horiz-adv-x="800" d="M111 0v1561h137v-926h53l289 440h149l-317 -485l379 -590h-162l-324 508h-67v-508h-137z" />
<glyph unicode="l" horiz-adv-x="358" d="M111 0v1561h137v-1561h-137z" />
<glyph unicode="m" horiz-adv-x="1370" d="M111 0v1075h129v-125q76 144 249 144q191 0 244 -158q76 158 256 158q148 0 209.5 -88t61.5 -287v-719h-138v682q0 152 -35.5 218.5t-130.5 66.5q-116 0 -159 -86.5t-43 -278.5v-602h-138v682q0 153 -35 219t-130 66q-116 0 -159.5 -86.5t-43.5 -278.5v-602h-137z" />
<glyph unicode="n" d="M111 0v1075h127v-125q82 144 262 144q153 0 216.5 -88.5t63.5 -286.5v-719h-137v682q0 153 -37 219t-137 66q-125 0 -173 -86.5t-48 -278.5v-602h-137z" />
<glyph unicode="o" horiz-adv-x="901" d="M98 412v254q0 238 79.5 333t277.5 95q197 0 272.5 -94t75.5 -332v-254q0 -240 -76.5 -336t-273.5 -96t-276 96.5t-79 333.5zM242 412q0 -70 4.5 -114.5t17 -81.5t36.5 -56.5t61 -30t92 -10.5t91 10t59 29t35 56.5t16.5 81.5t4.5 114v256q0 71 -4 114.5t-16 80.5t-35 56 t-59.5 29t-91.5 10q-68 0 -109 -13.5t-64 -50t-30.5 -87t-7.5 -137.5v-256z" />
<glyph unicode="p" d="M111 -397v1472h129v-127q53 76 117 111t151 35q160 0 222.5 -115t62.5 -375v-166q0 -238 -64.5 -347t-224.5 -109q-168 0 -256 137v-516h-137zM248 451q0 -183 45.5 -262.5t171.5 -79.5q105 0 144.5 78.5t39.5 256.5v185q0 179 -39.5 258.5t-144.5 79.5q-127 0 -172 -80 t-45 -264v-172z" />
<glyph unicode="q" d="M98 438v174q0 254 63 368t222 114q87 0 151 -35t117 -111v127h129v-1472h-137v518q-89 -139 -254 -139q-161 0 -226 110t-65 346zM242 446q0 -178 39.5 -257.5t144.5 -79.5q126 0 171.5 80.5t45.5 263.5v172q0 182 -45.5 262t-171.5 80q-105 0 -144.5 -78.5t-39.5 -257.5 v-185z" />
<glyph unicode="r" horiz-adv-x="716" d="M111 0v1075h127v-139q38 81 98.5 119.5t150.5 38.5q119 0 170.5 -69.5t51.5 -223.5v-84h-127v51q0 111 -29.5 159t-103.5 48q-115 0 -158 -69t-43 -228v-678h-137z" />
<glyph unicode="s" horiz-adv-x="845" d="M90 236v108h135v-65q0 -100 25.5 -135t114.5 -35h96q84 0 117.5 30.5t33.5 106.5v100q0 21 -1.5 37t-8.5 29.5t-13.5 22.5t-22.5 17t-30 13.5t-42.5 11.5t-52 10t-66.5 11q-55 9 -88.5 15.5t-68.5 17.5t-53.5 24.5t-34.5 34t-22 47.5t-6 65v144q0 126 70 187t213 61h96 q151 0 206.5 -55t55.5 -199v-43h-135v28q0 80 -30.5 111t-108.5 31h-70q-85 0 -119 -30t-34 -106v-102q0 -40 20 -61t72 -34.5t160 -25.5q148 -17 203 -71.5t55 -163.5v-144q0 -126 -70 -186.5t-213 -60.5h-121q-151 0 -206.5 55t-55.5 199z" />
<glyph unicode="t" horiz-adv-x="714" d="M39 950v127h111v258h137v-258h348v-127h-348v-616q0 -55 2 -86t8.5 -61.5t20.5 -45t38 -23.5t60 -9q69 0 97 37t28 122v103h123v-78q0 -165 -61 -238t-204 -73q-75 0 -123.5 17.5t-76.5 57t-38.5 94.5t-10.5 140v659h-111z" />
<glyph unicode="u" d="M111 356v719h137v-682q0 -153 38 -218.5t138 -65.5q124 0 171.5 85.5t47.5 278.5v602h137v-1075h-127v125q-82 -143 -262 -143q-153 0 -216.5 88t-63.5 286z" />
<glyph unicode="v" horiz-adv-x="794" d="M25 1075h145l231 -942l232 942h137l-276 -1075h-193z" />
<glyph unicode="w" horiz-adv-x="1298" d="M25 1075h141l190 -938l203 938h180l203 -938l191 938h141l-232 -1075h-186l-207 958l-205 -958h-186z" />
<glyph unicode="x" horiz-adv-x="798" d="M4 0l318 559l-289 516h157l211 -393l209 393h146l-285 -506l324 -569h-160l-242 434l-243 -434h-146z" />
<glyph unicode="y" horiz-adv-x="794" d="M25 1075h145l231 -942l232 942h137l-276 -1075q-22 -86 -40.5 -142.5t-44 -109.5t-54.5 -82.5t-69 -47t-91 -17.5q-35 0 -93 12v127q20 -4 50 -4q74 0 117.5 42.5t66.5 135.5l20 86h-55z" />
<glyph unicode="z" horiz-adv-x="702" d="M57 0v141l451 807h-406v127h543v-139l-450 -809h450v-127h-588z" />
<glyph unicode="{" horiz-adv-x="1036" d="M225 502v108q112 14 161.5 76t49.5 213v252q0 75 5.5 128t20.5 98t39.5 72.5t63.5 47t91.5 27.5t125.5 8h49v-111h-38q-73 0 -117.5 -12.5t-70 -45t-34 -79t-8.5 -123.5v-250q0 -164 -40.5 -242.5t-162.5 -113.5q122 -35 162.5 -113.5t40.5 -242.5v-250q0 -77 8.5 -123 t32.5 -79t67 -45.5t113 -12.5h47v-109h-49q-110 0 -176.5 18t-105 65t-51.5 114.5t-13 181.5v254q0 103 -24.5 164t-68 87.5t-118.5 37.5z" />
<glyph unicode="|" horiz-adv-x="1060" d="M475 -494v2118h113v-2118h-113z" />
<glyph unicode="}" horiz-adv-x="1036" d="M205 -311h47q70 0 113 12.5t67 45.5t32.5 79t8.5 123v250q0 164 40.5 242.5t162.5 113.5q-122 35 -162.5 113.5t-40.5 242.5v250q0 78 -8.5 124t-33.5 78.5t-69.5 45t-117.5 12.5h-39v111h49q73 0 125.5 -8t91.5 -27.5t63.5 -47t39.5 -72.5t20.5 -98t5.5 -128v-252 q0 -151 49.5 -213t161.5 -76v-108q-75 -11 -118.5 -37.5t-68 -87.5t-24.5 -164v-254q0 -114 -13 -181.5t-51.5 -114.5t-105 -65t-176.5 -18h-49v109z" />
<glyph unicode="~" horiz-adv-x="1763" d="M184 492v116q219 150 402 150q74 0 157 -22.5t146 -49.5t143 -49.5t148 -22.5q93 0 189 41t212 123v-116q-210 -148 -401 -148q-74 0 -156 22t-144 48.5t-142.5 48.5t-151.5 22q-91 0 -187.5 -40.5t-214.5 -122.5z" />
<glyph unicode="&#xa9;" horiz-adv-x="1763" d="M125 748q0 148 57 285.5t156 242t241 167t302 62.5q155 0 295 -58.5t241.5 -159t161 -241t59.5 -298.5q0 -212 -103 -387t-276.5 -273t-377.5 -98q-151 0 -290.5 59.5t-241.5 160.5t-163 242t-61 296zM207 748q0 -141 55.5 -267.5t147.5 -215.5t215.5 -141t255.5 -52 t255.5 51.5t216 139.5t148 215t55.5 270q0 144 -55 270.5t-147 214.5t-215 139t-258 51q-140 0 -266 -55t-215 -147t-141 -216t-52 -257zM483 752q0 211 113.5 338t292.5 127q140 0 234 -75t106 -196h-121q-19 82 -77.5 128t-145.5 46q-125 0 -200 -99t-75 -276 q0 -171 76 -270.5t199 -99.5q92 0 155 54.5t80 145.5h121q-12 -130 -113 -213t-249 -83q-180 0 -288 126.5t-108 346.5z" />
<glyph unicode="&#xab;" horiz-adv-x="815" d="M100 543l185 334h147l-180 -334l180 -332h-147zM408 543l184 334h149l-184 -334l184 -332h-149z" />
<glyph unicode="&#xac;" horiz-adv-x="1763" d="M262 489v134h1239v-547h-127v413h-1112z" />
<glyph unicode="&#xad;" horiz-adv-x="636" d="M88 508v127h461v-127h-461z" />
<glyph unicode="&#xae;" horiz-adv-x="1763" d="M125 748q0 147 55.5 284t152.5 242t240.5 168t307.5 63q162 0 304 -60.5t241 -163t155.5 -241.5t56.5 -292q0 -161 -61 -303t-164 -241t-242 -156.5t-290 -57.5q-152 0 -291.5 59.5t-241.5 160t-162.5 241.5t-60.5 297zM207 748q0 -138 54.5 -264t146 -216t215.5 -143 t258 -53q177 0 332 88t249 244t94 341q0 145 -54.5 272t-146 215.5t-215 139.5t-259.5 51q-114 0 -219.5 -36.5t-187 -101t-142.5 -149t-93 -185t-32 -203.5zM586 324v872h317q183 0 272 -58.5t89 -183.5q0 -91 -56 -153t-149 -74l194 -403h-151l-182 383h-203v-383h-131z M717 795h162q133 0 191 32.5t58 118.5q0 85 -60 123.5t-189 38.5h-162v-313z" />
<glyph unicode="&#xb1;" horiz-adv-x="1763" d="M262 57v101h1239v-101h-1239zM262 752v100h569v360h103v-360h567v-100h-567v-359h-103v359h-569z" />
<glyph unicode="&#xb5;" horiz-adv-x="1148" d="M-113 -432l326 1540h143l-129 -612q-16 -73 -16 -144q0 -120 58.5 -184t170.5 -64q130 0 224 108.5t139 319.5l125 576h143l-168 -795q-22 -104 -22 -137q0 -72 69 -72q14 0 39 5l-22 -113q-54 -14 -88 -14q-144 0 -144 153v15q-43 -79 -124.5 -123.5t-184.5 -44.5 q-94 0 -165 42t-111 119l-119 -575h-144z" />
<glyph unicode="&#xbb;" horiz-adv-x="815" d="M74 211l184 332l-184 334h151l183 -334l-183 -332h-151zM383 211l182 332l-182 334h147l187 -334l-187 -332h-147z" />
<glyph unicode="&#x401;" horiz-adv-x="870" d="M127 0v1534h686v-148h-532v-509h493v-144h-493v-586h532v-147h-686zM221 1735v192h164v-192h-164zM551 1735v192h164v-192h-164z" />
<glyph unicode="&#x402;" horiz-adv-x="1189" d="M14 1384v148h813v-148h-329v-507h241q216 0 300.5 -83.5t84.5 -277.5v-137q0 -206 -79.5 -292.5t-276.5 -86.5h-125v143h98q122 0 176 44.5t54 150.5v186q0 116 -47 162.5t-172 46.5h-254v-733h-154v1384h-330z" />
<glyph unicode="&#x403;" horiz-adv-x="858" d="M127 0v1534h711v-148h-557v-1386h-154zM362 1669l216 363h184l-289 -363h-111z" />
<glyph unicode="&#x404;" horiz-adv-x="1044" d="M113 451v581q0 271 92 395.5t305 124.5h82q209 0 298 -103.5t89 -338.5v-72h-164v19q0 195 -45.5 271.5t-177.5 76.5h-88q-71 0 -115.5 -19.5t-69.5 -67.5t-34 -113.5t-9 -172.5v-155h357v-144h-357v-225q0 -63 1 -103t4.5 -82.5t10 -67t18.5 -49.5t28 -37t40.5 -22.5 t54.5 -14t71 -3.5h84q52 0 87.5 6.5t61.5 24.5t41 41.5t23.5 66.5t11 90t2.5 121v37h164v-90q0 -227 -88 -335.5t-273 -108.5h-147q-89 0 -154 23.5t-104 63t-61.5 101.5t-30.5 127.5t-8 153.5z" />
<glyph unicode="&#x405;" horiz-adv-x="1073" d="M98 420v78h160v-131q0 -133 44.5 -185.5t162.5 -52.5h151q111 0 153 46t42 161v133q0 52 -5 87t-26 61.5t-39 40.5t-69.5 26.5t-90 18t-126.5 16.5q-184 22 -256 87.5t-72 223.5v193q0 168 90 248.5t277 80.5h110q202 0 286.5 -90t84.5 -301v-47h-164v53 q0 133 -42.5 185.5t-160.5 52.5h-125q-111 0 -151.5 -45.5t-40.5 -161.5v-166q0 -54 19 -81t78.5 -47.5t189.5 -41.5q91 -14 151.5 -29.5t110.5 -40t78 -58.5t42.5 -82.5t14.5 -116.5v-222q0 -170 -89.5 -250.5t-277.5 -80.5h-137q-113 0 -184.5 23.5t-114 78.5t-58.5 134 t-16 202z" />
<glyph unicode="&#x406;" horiz-adv-x="419" d="M133 0v1534h154v-1534h-154z" />
<glyph unicode="&#x407;" horiz-adv-x="419" d="M-37 1735v192h164v-192h-164zM133 0v1534h154v-1534h-154zM293 1735v192h164v-192h-164z" />
<glyph unicode="&#x408;" horiz-adv-x="907" d="M31 338v180h153v-123q0 -155 43.5 -212.5t175.5 -57.5q133 0 178.5 58t45.5 212v1139h153v-1196q0 -203 -81 -279.5t-293 -76.5t-293.5 76.5t-81.5 279.5z" />
<glyph unicode="&#x409;" horiz-adv-x="1908" d="M31 0v150h37q63 0 95.5 19t50 80t17.5 181v1104h918v-657h260q102 0 168.5 -8.5t121 -32t84 -66.5t45 -109t15.5 -163v-117q0 -97 -15 -162.5t-45 -109t-84 -67.5t-121.5 -33t-168.5 -9h-414v1386h-610v-940q0 -226 -58.5 -336t-199.5 -110h-96zM1149 143h237 q71 0 112.5 3.5t80.5 14t58.5 32t30.5 57t11 88.5v203q0 38 -5.5 66.5t-15 49.5t-28.5 34.5t-39.5 22t-54.5 12.5t-66.5 5.5t-83.5 1.5h-237v-590z" />
<glyph unicode="&#x40a;" horiz-adv-x="1804" d="M127 0v1534h154v-657h610v657h153v-657h261q102 0 168.5 -8.5t121 -32t84 -66.5t45 -109t15.5 -163v-117q0 -97 -15 -162.5t-45 -109t-84 -67.5t-121.5 -33t-168.5 -9h-414v733h-610v-733h-154zM1044 143h238q71 0 112.5 3.5t80.5 14t58.5 32t30.5 57t11 88.5v203 q0 38 -5.5 66.5t-15 49.5t-28.5 34.5t-39.5 22t-54.5 12.5t-66.5 5.5t-83.5 1.5h-238v-590z" />
<glyph unicode="&#x40b;" horiz-adv-x="1234" d="M14 1384v148h813v-148h-329v-507h256q110 0 181 -19.5t113 -65t58 -110.5t16 -166v-516h-153v526q0 116 -46 161.5t-171 45.5h-254v-733h-154v1384h-330z" />
<glyph unicode="&#x40c;" horiz-adv-x="1089" d="M127 0v1534h154v-657h79l488 657h172l-543 -727l613 -807h-193l-555 733h-61v-733h-154zM473 1669l215 363h184l-288 -363h-111z" />
<glyph unicode="&#x40e;" horiz-adv-x="997" d="M0 1534h164l354 -1063l324 1063h155l-401 -1294q-37 -122 -102.5 -189t-137.5 -67h-143v149h74q67 0 99 22.5t48 100.5zM233 1909h103q0 -80 37 -105.5t114 -25.5q81 0 117.5 25.5t36.5 105.5h102q0 -141 -55.5 -190.5t-200.5 -49.5q-141 0 -197.5 49.5t-56.5 190.5z" />
<glyph unicode="&#x40f;" horiz-adv-x="1171" d="M127 0v1534h154v-1387h610v1387h153v-1534h-387v-373h-143v373h-387z" />
<glyph unicode="&#x410;" horiz-adv-x="1032" d="M0 0l440 1534h176l416 -1534h-166l-86 330h-532l-96 -330h-152zM289 473h452l-217 854z" />
<glyph unicode="&#x411;" horiz-adv-x="1073" d="M127 0v1534h745v-143h-591v-514h260q102 0 168.5 -8.5t121 -32t84 -66.5t45 -109t15.5 -163v-117q0 -97 -15 -162.5t-45 -109t-84 -67.5t-121.5 -33t-168.5 -9h-414zM281 143h237q71 0 112.5 3.5t80.5 14t58.5 32t30.5 57t11 88.5v203q0 38 -5.5 66.5t-15 49.5 t-28.5 34.5t-39.5 22t-54.5 12.5t-66.5 5.5t-83.5 1.5h-237v-590z" />
<glyph unicode="&#x412;" horiz-adv-x="1110" d="M127 0v1534h403q100 0 167 -7.5t123 -27.5t87 -56t47.5 -92t16.5 -137v-135q0 -110 -44 -173t-145 -97q114 -31 164.5 -105.5t50.5 -209.5v-148q0 -196 -100 -271t-338 -75h-432zM281 143h243q92 0 147 8t97 31t59 66.5t17 113.5v142q0 71 -17 116t-58.5 70t-98 34 t-146.5 9h-243v-590zM281 877h233q173 0 238 35t65 149v172q0 42 -12 70t-33 45.5t-60.5 27t-84 12.5t-113.5 3h-233v-514z" />
<glyph unicode="&#x413;" horiz-adv-x="858" d="M127 0v1534h711v-148h-557v-1386h-154z" />
<glyph unicode="&#x414;" horiz-adv-x="1177" d="M25 147h110q49 102 69 159.5t32 157t12 267.5v803h805v-1387h100v-520h-143v373h-842v-373h-143v520zM297 147h602v1239h-498v-671q0 -133 -4.5 -214.5t-19.5 -146t-30 -101t-50 -106.5z" />
<glyph unicode="&#x415;" horiz-adv-x="870" d="M127 0v1534h686v-148h-532v-509h493v-144h-493v-586h532v-147h-686z" />
<glyph unicode="&#x416;" horiz-adv-x="1579" d="M0 0l541 809l-482 725h168l437 -657h49v657h153v-657h49l437 657h168l-482 -725l541 -809h-178l-492 733h-43v-733h-153v733h-43l-492 -733h-178z" />
<glyph unicode="&#x417;" horiz-adv-x="1036" d="M113 442v62h153v-72q0 -92 6.5 -144.5t28.5 -92.5t62.5 -55t109.5 -15h86q110 0 155.5 57t45.5 193v121q0 127 -45 173t-176 46h-103v143h109q114 0 164.5 45t50.5 154v102q0 134 -46 192t-151 58h-82q-44 0 -75 -6.5t-52.5 -23.5t-34 -38.5t-19.5 -60t-9 -78.5t-2 -102 v-29h-148v21q0 247 70 353.5t256 106.5h119q185 0 261.5 -99.5t76.5 -322.5q0 -156 -44 -231.5t-163 -103.5q115 -40 161 -118.5t46 -219.5q0 -105 -8.5 -178t-30.5 -132.5t-61 -94t-98.5 -52.5t-143.5 -18h-125q-197 0 -270.5 105t-73.5 355z" />
<glyph unicode="&#x418;" horiz-adv-x="1206" d="M127 0v1534h154v-1364l569 1364h229v-1534h-153v1339l-559 -1339h-240z" />
<glyph unicode="&#x419;" horiz-adv-x="1206" d="M127 0v1534h154v-1364l569 1364h229v-1534h-153v1339l-559 -1339h-240zM344 1909h102q0 -80 37.5 -105.5t114.5 -25.5q81 0 117.5 25.5t36.5 105.5h102q0 -141 -55.5 -190.5t-200.5 -49.5q-141 0 -197.5 49.5t-56.5 190.5z" />
<glyph unicode="&#x41a;" horiz-adv-x="1089" d="M127 0v1534h154v-657h79l488 657h172l-543 -727l613 -807h-193l-555 733h-61v-733h-154z" />
<glyph unicode="&#x41b;" horiz-adv-x="1275" d="M31 0v150h37q63 0 95.5 19t50 80t17.5 181v1104h918v-1534h-154v1386h-610v-940q0 -226 -58.5 -336t-199.5 -110h-96z" />
<glyph unicode="&#x41c;" horiz-adv-x="1617" d="M127 0v1534h244l428 -1350l458 1350h234v-1534h-139v1403l-478 -1403h-153l-455 1403v-1403h-139z" />
<glyph unicode="&#x41d;" horiz-adv-x="1171" d="M127 0v1534h154v-657h610v657h153v-1534h-153v733h-610v-733h-154z" />
<glyph unicode="&#x41e;" horiz-adv-x="1153" d="M113 500v532q0 272 92 396t307 124h131q215 0 306 -124t91 -396v-532q0 -272 -91 -395t-306 -123h-131q-215 0 -307 123.5t-92 394.5zM276 500q0 -107 9.5 -172.5t37.5 -113t77 -66.5t128 -19h95q79 0 128.5 19t77.5 66t38 113t10 173v532q0 107 -9.5 173t-37 113.5 t-77 67t-128.5 19.5h-95q-79 0 -128.5 -19.5t-77.5 -67t-38 -113.5t-10 -173v-532z" />
<glyph unicode="&#x41f;" horiz-adv-x="1171" d="M127 0v1534h917v-1534h-153v1386h-610v-1386h-154z" />
<glyph unicode="&#x420;" horiz-adv-x="1073" d="M127 0v1534h414q102 0 168.5 -9t121 -32t84 -66t45 -108.5t15.5 -161.5v-178q0 -97 -15.5 -163.5t-45 -109.5t-84 -66.5t-121 -32.5t-168.5 -9h-260v-598h-154zM281 741h237q70 0 112 3.5t81 14t58.5 31.5t30.5 56t11 88v264q0 39 -5.5 67.5t-15 49.5t-29 34.5t-39.5 22 t-54.5 12.5t-66.5 5.5t-83 1.5h-237v-650z" />
<glyph unicode="&#x421;" horiz-adv-x="1040" d="M113 465v567q0 271 92 395.5t305 124.5h82q209 0 298 -103.5t89 -338.5v-72h-164v19q0 194 -47 271t-180 77h-84q-71 0 -115.5 -19.5t-69.5 -67.5t-34 -113.5t-9 -172.5v-516q0 -72 1.5 -116.5t6.5 -91t15 -72t26 -49.5t41 -34.5t58.5 -17t79.5 -6.5h86q44 0 76 5.5 t56.5 16t40.5 31t26.5 45t16 64.5t7.5 82.5t2 105.5v37h164v-90q0 -227 -88 -335.5t-273 -108.5h-147q-89 0 -154 25t-104 66.5t-62 106t-30.5 131t-7.5 154.5z" />
<glyph unicode="&#x422;" horiz-adv-x="841" d="M14 1386v148h813v-148h-329v-1386h-154v1386h-330z" />
<glyph unicode="&#x423;" horiz-adv-x="997" d="M0 1534h164l354 -1063l324 1063h155l-401 -1294q-37 -122 -102.5 -189t-137.5 -67h-143v149h74q67 0 99 22.5t48 100.5z" />
<glyph unicode="&#x424;" horiz-adv-x="1603" d="M113 727v117q0 151 25 249t87 163t162 92.5t254 27.5h84v158h154v-158h84q154 0 254 -28t162 -93.5t87 -163.5t25 -249v-115q0 -153 -24 -252t-85 -165.5t-160 -94t-253 -27.5h-90v-188h-154v188h-90q-154 0 -253 27.5t-160 94t-85 165.5t-24 252zM276 717 q0 -75 4 -124.5t17.5 -96.5t37.5 -75t64 -49.5t97.5 -30.5t138.5 -9h90v901h-51q-90 0 -152.5 -7t-108 -26.5t-71.5 -45t-41.5 -72t-20 -97t-4.5 -129.5v-139zM879 332h92q81 0 138.5 8.5t97 30.5t63 49t36.5 74.5t17 96.5t4 124v141q0 79 -5 129.5t-20 97t-41.5 72t-72 45 t-108 26.5t-152.5 7h-49v-901z" />
<glyph unicode="&#x425;" horiz-adv-x="952" d="M4 0l375 807l-348 727h164l288 -631l285 631h152l-347 -758l375 -776h-170l-311 680l-309 -680h-154z" />
<glyph unicode="&#x426;" horiz-adv-x="1196" d="M127 0v1534h154v-1387h610v1387h153v-1387h101v-520h-144v373h-874z" />
<glyph unicode="&#x427;" horiz-adv-x="1157" d="M113 1018v516h153v-438q0 -260 185 -260h276q99 0 150 26v672h153v-1534h-153v733q-72 -45 -177 -45h-249q-154 0 -246 86t-92 244z" />
<glyph unicode="&#x428;" horiz-adv-x="1677" d="M127 0v1534h154v-1387h481v1387h153v-1387h482v1387h153v-1534h-1423z" />
<glyph unicode="&#x429;" horiz-adv-x="1701" d="M127 0v1534h154v-1387h481v1387h153v-1387h482v1387h153v-1387h101v-520h-144v373h-1380z" />
<glyph unicode="&#x42a;" horiz-adv-x="1230" d="M-20 1391v143h458v-657h260q102 0 168.5 -8.5t121.5 -32t84.5 -66.5t45 -109t15.5 -163v-117q0 -120 -22 -194t-77 -116t-132 -56.5t-204 -14.5h-413v1391h-305zM438 143h238q71 0 112.5 3.5t80.5 14t58.5 32t30.5 57t11 88.5v203q0 38 -5.5 66.5t-15 49.5t-28.5 34.5 t-39.5 22t-54.5 12.5t-66.5 5.5t-83.5 1.5h-238v-590z" />
<glyph unicode="&#x42b;" horiz-adv-x="1507" d="M127 0v1534h154v-657h260q102 0 168.5 -8.5t121 -32t84 -66.5t45 -109t15.5 -163v-117q0 -97 -15 -162.5t-45 -109t-84 -67.5t-121.5 -33t-168.5 -9h-414zM281 143h237q71 0 112.5 3.5t80.5 14t58.5 32t30.5 57t11 88.5v203q0 38 -5.5 66.5t-15 49.5t-28.5 34.5t-39.5 22 t-54.5 12.5t-66.5 5.5t-83.5 1.5h-237v-590zM1227 0v1534h153v-1534h-153z" />
<glyph unicode="&#x42c;" horiz-adv-x="1040" d="M127 0v1534h154v-657h260q102 0 168.5 -8.5t121 -32t84 -66.5t45 -109t15.5 -163v-117q0 -97 -15 -162.5t-45 -109t-84 -67.5t-121.5 -33t-168.5 -9h-414zM281 143h237q71 0 112.5 3.5t80.5 14t58.5 32t30.5 57t11 88.5v203q0 38 -5.5 66.5t-15 49.5t-28.5 34.5t-39.5 22 t-54.5 12.5t-66.5 5.5t-83.5 1.5h-237v-590z" />
<glyph unicode="&#x42d;" horiz-adv-x="1044" d="M66 426v90h163v-37q0 -63 2 -105.5t7.5 -82.5t16.5 -64.5t27 -45t41 -31t57.5 -16t76.5 -5.5h84q41 0 71 4t54 15t40.5 23.5t28 38.5t18 51t10 68t4.5 83.5t1 103.5v217h-356v144h356v155q0 107 -8.5 172.5t-33.5 113.5t-69.5 67.5t-115.5 19.5h-88q-132 0 -178 -77 t-46 -271v-19h-163v72q0 235 89 338.5t298 103.5h82q213 0 305 -124.5t92 -395.5v-581q0 -88 -8 -153.5t-31 -127.5t-62 -101.5t-104 -63t-154 -23.5h-147q-185 0 -272.5 108.5t-87.5 335.5z" />
<glyph unicode="&#x42e;" horiz-adv-x="1527" d="M125 0v1534h154v-657h210v155q0 271 92 395.5t306 124.5h131q215 0 307 -124t92 -396v-532q0 -271 -92 -394.5t-307 -123.5h-131q-214 0 -306 123.5t-92 394.5v233h-210v-733h-154zM653 500q0 -107 9.5 -172.5t37.5 -113t77 -66.5t128 -19h92q79 0 129 19t78 66t38.5 113 t10.5 173v532q0 107 -10 173t-38 113.5t-78 67t-130 19.5h-92q-79 0 -128.5 -19.5t-77 -67t-37 -113.5t-9.5 -173v-532z" />
<glyph unicode="&#x42f;" horiz-adv-x="1040" d="M8 0l350 664q-113 9 -176.5 45.5t-94 114.5t-30.5 214v117q0 96 15.5 162t45.5 109t85 66.5t123 32.5t170 9h411v-1534h-153v659h-232l-334 -659h-180zM221 993q0 -38 6 -66.5t15.5 -49t29.5 -34t40 -21.5t55 -12.5t67.5 -5.5t83.5 -1h236v588h-236q-71 0 -113 -3.5 t-81.5 -14t-59.5 -32t-31.5 -57t-11.5 -88.5v-203z" />
<glyph unicode="&#x430;" horiz-adv-x="866" d="M94 254v143q0 135 72.5 204t210.5 69q87 0 145.5 -21t95.5 -69v165q0 134 -35 178t-149 44q-88 0 -127 -30t-39 -106v-51h-141v49q0 141 75 203t238 62q181 0 248.5 -66.5t67.5 -245.5v-782h-138v98q-37 -65 -97 -90.5t-161 -25.5q-134 0 -200 66.5t-66 205.5zM238 313 q0 -109 39.5 -156.5t136.5 -47.5q118 0 163.5 51.5t45.5 175.5q0 121 -40 164t-153 43q-115 0 -153.5 -47.5t-38.5 -182.5z" />
<glyph unicode="&#x431;" horiz-adv-x="894" d="M98 469v358q0 237 86 374.5t240 137.5q54 0 84 1.5t54.5 6t34.5 14.5t14.5 24t4.5 38h121q0 -125 -60 -168t-210 -43q-61 0 -102.5 -15t-73.5 -53.5t-48 -108.5t-18 -177q33 86 83 122t147 36q88 0 147 -15t98 -44.5t60 -85t29 -125.5t8 -177v-194q0 -100 -16 -170 t-54.5 -122t-106 -76.5t-167.5 -24.5q-89 0 -150.5 18t-102 52t-63 95t-31 136t-8.5 186zM236 426q0 -177 44.5 -242t172.5 -65q54 0 89 9t59 28t36 57t17 86.5t5 126.5v180q0 144 -47.5 208.5t-160.5 64.5q-121 0 -168 -56.5t-47 -216.5v-180z" />
<glyph unicode="&#x432;" horiz-adv-x="870" d="M111 0v1075h348q144 0 213 -61t69 -187v-71q0 -27 -7 -53t-23.5 -53.5t-49 -47t-77.5 -24.5q100 -9 144 -64t44 -154v-71q0 -289 -270 -289h-391zM248 127h205q102 0 139 36t37 122v67q0 77 -40 116.5t-153 39.5h-188v-381zM248 635h149q33 0 53.5 1t46.5 3.5t42 9 t30.5 16.5t21.5 27t7 39v82q0 75 -33.5 105t-118.5 30h-198v-313z" />
<glyph unicode="&#x433;" horiz-adv-x="655" d="M111 0v1075h532v-127h-395v-948h-137z" />
<glyph unicode="&#x434;" horiz-adv-x="929" d="M25 127h75q41 72 58.5 120.5t27 134t9.5 239.5v454h620v-948h90v-414h-129v287h-622v-287h-129v414zM238 127h440v821h-352v-344q0 -192 -18.5 -294t-69.5 -183z" />
<glyph unicode="&#x435;" horiz-adv-x="899" d="M98 414v254q0 238 77.5 332t275.5 94q197 0 273.5 -94t76.5 -332v-160h-559v-98q0 -72 4 -115t15.5 -81t34.5 -56.5t60 -28.5t93 -10q126 0 174.5 38t48.5 144v33h129v-33q0 -171 -84 -245t-268 -74q-196 0 -273.5 97t-77.5 335zM242 635h422v78q0 145 -43.5 199.5 t-167.5 54.5q-123 0 -167 -54.5t-44 -199.5v-78z" />
<glyph unicode="&#x436;" horiz-adv-x="1243" d="M0 0l381 592l-318 483h150l287 -440h53v440h137v-440h53l287 440h150l-318 -483l381 -592h-162l-323 508h-68v-508h-137v508h-68l-323 -508h-162z" />
<glyph unicode="&#x437;" horiz-adv-x="864" d="M72 324h143q0 -126 44 -170.5t144 -44.5h58q92 0 127 30.5t35 106.5v100q0 162 -138 162h-159v127h153q129 0 129 137v59q0 70 -33 103t-104 33h-70q-91 0 -126 -32.5t-35 -117.5v-35h-144v35q0 147 68.5 212t212.5 65h104q77 0 132 -20t84 -56t42 -78t13 -94v-62 q0 -179 -138 -215q75 -14 113.5 -68t38.5 -128v-144q0 -132 -73.5 -189.5t-207.5 -57.5h-104q-172 0 -240.5 82.5t-68.5 259.5z" />
<glyph unicode="&#x438;" horiz-adv-x="935" d="M111 0v1075h129v-897l407 897h178v-1075h-129v907l-409 -907h-176z" />
<glyph unicode="&#x439;" horiz-adv-x="935" d="M111 0v1075h129v-897l407 897h178v-1075h-129v907l-409 -907h-176zM266 1370h82q0 -59 31 -78.5t100 -19.5q65 0 88 18t23 80h84q0 -111 -45 -150.5t-158 -39.5q-115 0 -160 39.5t-45 150.5z" />
<glyph unicode="&#x43a;" horiz-adv-x="800" d="M111 0v1075h137v-440h53l289 440h149l-317 -485l379 -590h-162l-324 508h-67v-508h-137z" />
<glyph unicode="&#x43b;" horiz-adv-x="954" d="M23 0v133h20q53 0 79 12.5t39 51.5t13 118v760h670v-1075h-137v948h-396v-637q0 -311 -217 -311h-71z" />
<glyph unicode="&#x43c;" horiz-adv-x="1200" d="M111 0v1075h219l270 -917l270 917h220v-1075h-129v973l-293 -973h-136l-292 973v-973h-129z" />
<glyph unicode="&#x43d;" d="M111 0v1075h137v-440h395v440h137v-1075h-137v508h-395v-508h-137z" />
<glyph unicode="&#x43e;" horiz-adv-x="901" d="M98 412v254q0 238 79.5 333t277.5 95q197 0 272.5 -94t75.5 -332v-254q0 -240 -76.5 -336t-273.5 -96t-276 96.5t-79 333.5zM242 412q0 -70 4.5 -114.5t17 -81.5t36.5 -56.5t61 -30t92 -10.5t91 10t59 29t35 56.5t16.5 81.5t4.5 114v256q0 71 -4 114.5t-16 80.5t-35 56 t-59.5 29t-91.5 10q-68 0 -109 -13.5t-64 -50t-30.5 -87t-7.5 -137.5v-256z" />
<glyph unicode="&#x43f;" d="M111 0v1075h669v-1075h-137v948h-395v-948h-137z" />
<glyph unicode="&#x440;" d="M111 -397v1472h129v-127q53 76 117 111t151 35q160 0 222.5 -115t62.5 -375v-166q0 -238 -64.5 -347t-224.5 -109q-168 0 -256 137v-516h-137zM248 451q0 -183 45.5 -262.5t171.5 -79.5q105 0 144.5 78.5t39.5 256.5v185q0 179 -39.5 258.5t-144.5 79.5q-127 0 -172 -80 t-45 -264v-172z" />
<glyph unicode="&#x441;" horiz-adv-x="858" d="M98 412v254q0 238 78.5 333t276.5 95q168 0 242.5 -75t74.5 -245v-51h-143v18q0 118 -43 166.5t-146 48.5q-53 0 -87.5 -10t-56.5 -28.5t-33 -56t-15 -80.5t-4 -113v-256q0 -70 4 -114t15.5 -81.5t34.5 -57t58.5 -30t89.5 -10.5q120 0 160.5 50.5t40.5 184.5v43h143v-45 q0 -195 -80.5 -282.5t-256.5 -87.5q-197 0 -275 95.5t-78 334.5z" />
<glyph unicode="&#x442;" horiz-adv-x="755" d="M12 948v127h731v-127h-297v-948h-137v948h-297z" />
<glyph unicode="&#x443;" horiz-adv-x="794" d="M25 1075h145l231 -942l232 942h137l-276 -1075q-22 -86 -40.5 -142.5t-44 -109.5t-54.5 -82.5t-69 -47t-91 -17.5q-35 0 -93 12v127q20 -4 50 -4q74 0 117.5 42.5t66.5 135.5l20 86h-55z" />
<glyph unicode="&#x444;" horiz-adv-x="1349" d="M98 440v166q0 273 62.5 380.5t228.5 107.5q133 0 217 -127v444h137v-444q84 127 218 127q165 0 227.5 -107.5t62.5 -380.5v-166q0 -249 -65.5 -353.5t-229.5 -104.5q-76 0 -132 34.5t-81 96.5v-504h-137v504q-25 -62 -81 -96.5t-132 -34.5q-164 0 -229.5 104.5 t-65.5 353.5zM242 451q0 -179 41.5 -260.5t146.5 -81.5q29 0 52.5 6t41 13.5t30.5 25t22 31t14.5 42.5t9 47.5t5 57t1.5 60.5v69v14v107q0 158 -16.5 239t-54.5 113.5t-113 32.5q-100 0 -140 -77.5t-40 -254.5v-184zM743 475q0 -176 13 -235q21 -100 100 -123q28 -8 64 -8 q105 0 146.5 80.5t41.5 259.5v186q0 177 -40 254.5t-140 77.5q-75 0 -113.5 -32.5t-55 -113.5t-16.5 -239v-107z" />
<glyph unicode="&#x445;" horiz-adv-x="798" d="M4 0l318 559l-289 516h157l211 -393l209 393h146l-285 -506l324 -569h-160l-242 434l-243 -434h-146z" />
<glyph unicode="&#x446;" horiz-adv-x="901" d="M111 0v1075h137v-948h393v948h137v-948h92v-414h-129v287h-630z" />
<glyph unicode="&#x447;" d="M111 766v309h137v-270q0 -126 36.5 -169.5t127.5 -43.5q148 0 231 57v426h137v-1075h-137v543h-6q-29 -44 -83 -61t-183 -17q-260 0 -260 301z" />
<glyph unicode="&#x448;" horiz-adv-x="1320" d="M111 0v1075h137v-948h344v948h137v-948h344v948h137v-1075h-1099z" />
<glyph unicode="&#x449;" horiz-adv-x="1333" d="M111 0v1075h137v-948h344v948h137v-948h344v948h137v-948h93v-414h-129v287h-1063z" />
<glyph unicode="&#x44a;" horiz-adv-x="944" d="M0 948v127h356v-440h238q151 0 218 -70.5t67 -204.5v-71q0 -289 -273 -289h-387v948h-219zM356 127h205q103 0 138.5 43.5t35.5 163.5q0 100 -38.5 137t-153.5 37h-187v-381z" />
<glyph unicode="&#x44b;" horiz-adv-x="1183" d="M111 0v1075h137v-440h237q151 0 218 -70.5t67 -204.5v-71q0 -289 -272 -289h-387zM248 127h205q103 0 138.5 43.5t35.5 163.5q0 100 -38.5 137t-154.5 37h-186v-381zM936 0v1075h137v-1075h-137z" />
<glyph unicode="&#x44c;" horiz-adv-x="835" d="M111 0v1075h137v-440h237q151 0 218 -70.5t67 -204.5v-71q0 -289 -272 -289h-387zM248 127h205q103 0 138.5 43.5t35.5 163.5q0 100 -38.5 137t-154.5 37h-186v-381z" />
<glyph unicode="&#x44d;" horiz-adv-x="856" d="M70 352v45h143v-43q0 -133 43 -184t164 -51q45 0 76.5 6t53 22.5t34 36.5t19.5 57t9 74t2 97v96h-276v127h276v33q0 72 -3 113.5t-13.5 79.5t-31.5 56t-55 28.5t-87 10.5q-104 0 -149.5 -49t-45.5 -166v-18h-143v51q0 167 86.5 243.5t257.5 76.5q100 0 163 -21.5 t100 -74.5t51 -130.5t14 -201.5v-254q0 -241 -72.5 -335.5t-267.5 -94.5q-177 0 -262.5 88t-85.5 282z" />
<glyph unicode="&#x44e;" horiz-adv-x="1208" d="M111 0v1075h137v-440h158v31q0 238 78 333t276 95t274 -94t76 -332v-256q0 -239 -77 -334.5t-275 -95.5q-197 0 -274.5 96t-77.5 334v96h-158v-508h-137zM549 412q0 -70 4.5 -114.5t17 -81.5t36.5 -57t60.5 -30t90.5 -10q55 0 91 10t60 29.5t36.5 56t17 81t4.5 114.5v256 q0 70 -4.5 114t-16.5 81t-36 56t-60.5 29t-91.5 10q-67 0 -107.5 -13.5t-63.5 -50t-30.5 -87t-7.5 -137.5v-256z" />
<glyph unicode="&#x44f;" horiz-adv-x="858" d="M86 0l221 444q-105 14 -163 85t-58 186v71q0 145 72.5 217t208.5 72h381v-1075h-138v442h-153l-228 -442h-143zM229 741q0 -99 39 -135.5t154 -36.5h188v379h-204q-102 0 -139.5 -44t-37.5 -163z" />
<glyph unicode="&#x451;" horiz-adv-x="899" d="M98 414v254q0 238 77.5 332t275.5 94q197 0 273.5 -94t76.5 -332v-160h-559v-98q0 -72 4 -115t15.5 -81t34.5 -56.5t60 -28.5t93 -10q126 0 174.5 38t48.5 144v33h129v-33q0 -171 -84 -245t-268 -74q-196 0 -273.5 97t-77.5 335zM219 1280v180h137v-180h-137zM242 635 h422v78q0 145 -43.5 199.5t-167.5 54.5q-123 0 -167 -54.5t-44 -199.5v-78zM547 1280v180h137v-180h-137z" />
<glyph unicode="&#x452;" d="M10 1223v112h101v226h137v-226h280v-112h-280v-258q86 129 252 129q153 0 216.5 -89t63.5 -286v-676q0 -240 -76.5 -336t-273.5 -96v137q57 0 94.5 10t61.5 29t36.5 56.5t16.5 81t4 114.5v643q0 152 -37.5 218.5t-136.5 66.5q-125 0 -173 -86.5t-48 -280.5v-600h-137 v1223h-101z" />
<glyph unicode="&#x453;" horiz-adv-x="655" d="M111 0v1075h532v-127h-395v-948h-137zM301 1180l170 288h147l-231 -288h-86z" />
<glyph unicode="&#x454;" horiz-adv-x="858" d="M98 412v254q0 238 78.5 333t276.5 95q168 0 242.5 -74t74.5 -244v-53h-143v18q0 118 -43 166.5t-146 48.5q-53 0 -87.5 -10t-56.5 -28.5t-33 -56t-15 -80.5t-4 -113v-33h276v-127h-276v-96q0 -70 4 -114t15.5 -81.5t34.5 -57t58.5 -30t89.5 -10.5q120 0 159.5 49.5 t39.5 183.5v45h143v-45q0 -196 -79.5 -283t-255.5 -87q-197 0 -275 95.5t-78 334.5z" />
<glyph unicode="&#x455;" horiz-adv-x="845" d="M90 236v108h135v-65q0 -100 25.5 -135t114.5 -35h96q84 0 117.5 30.5t33.5 106.5v100q0 21 -1.5 37t-8.5 29.5t-13.5 22.5t-22.5 17t-30 13.5t-42.5 11.5t-52 10t-66.5 11q-55 9 -88.5 15.5t-68.5 17.5t-53.5 24.5t-34.5 34t-22 47.5t-6 65v144q0 126 70 187t213 61h96 q151 0 206.5 -55t55.5 -199v-43h-135v28q0 80 -30.5 111t-108.5 31h-70q-85 0 -119 -30t-34 -106v-102q0 -40 20 -61t72 -34.5t160 -25.5q148 -17 203 -71.5t55 -163.5v-144q0 -126 -70 -186.5t-213 -60.5h-121q-151 0 -206.5 55t-55.5 199z" />
<glyph unicode="&#x456;" horiz-adv-x="358" d="M111 0v1075h137v-1075h-137zM111 1280v180h137v-180h-137z" />
<glyph unicode="&#x457;" horiz-adv-x="358" d="M-37 1280v180h137v-180h-137zM111 0v1075h137v-1075h-137zM258 1280v180h137v-180h-137z" />
<glyph unicode="&#x458;" horiz-adv-x="358" d="M-8 -264h20q66 0 82.5 34t16.5 138v1167h137v-1165q0 -172 -41.5 -238.5t-165.5 -66.5q-22 0 -49 6v125zM111 1280v180h137v-180h-137z" />
<glyph unicode="&#x459;" horiz-adv-x="1464" d="M23 0v133h20q53 0 79 12.5t39 51.5t13 118v760h670v-440h237q151 0 218 -70.5t67 -204.5v-71q0 -289 -272 -289h-387v948h-396v-637q0 -311 -217 -311h-71zM844 127h205q103 0 138.5 43.5t35.5 163.5q0 100 -38.5 137t-154.5 37h-186v-381z" />
<glyph unicode="&#x45a;" horiz-adv-x="1400" d="M111 0v1075h137v-440h395v440h137v-440h238q151 0 218 -70.5t67 -204.5v-71q0 -289 -273 -289h-387v508h-395v-508h-137zM780 127h205q103 0 138.5 43.5t35.5 163.5q0 100 -38.5 137t-153.5 37h-187v-381z" />
<glyph unicode="&#x45b;" d="M10 1223v112h101v226h137v-226h280v-112h-280v-258q86 129 252 129q153 0 216.5 -89t63.5 -286v-719h-137v682q0 152 -37.5 218.5t-136.5 66.5q-125 0 -173 -86.5t-48 -280.5v-600h-137v1223h-101z" />
<glyph unicode="&#x45c;" horiz-adv-x="800" d="M111 0v1075h137v-440h53l289 440h149l-317 -485l379 -590h-162l-324 508h-67v-508h-137zM354 1180l170 288h148l-232 -288h-86z" />
<glyph unicode="&#x45e;" horiz-adv-x="794" d="M25 1075h145l231 -942l232 942h137l-276 -1075q-22 -86 -40.5 -142.5t-44 -109.5t-54.5 -82.5t-69 -47t-91 -17.5q-35 0 -93 12v127q20 -4 50 -4q74 0 117.5 42.5t66.5 135.5l20 86h-55zM213 1370h82q0 -59 31 -78.5t100 -19.5q65 0 88 18t23 80h84q0 -111 -45 -150.5 t-158 -39.5q-115 0 -160 39.5t-45 150.5z" />
<glyph unicode="&#x45f;" d="M111 0v1075h137v-948h395v948h137v-1075h-266v-287h-137v287h-266z" />
<glyph unicode="&#x490;" horiz-adv-x="837" d="M127 0v1534h557v135h154v-283h-557v-1386h-154z" />
<glyph unicode="&#x491;" horiz-adv-x="655" d="M111 0v1075h395v105h137v-232h-395v-948h-137z" />
<glyph unicode="&#x2000;" horiz-adv-x="1016" />
<glyph unicode="&#x2001;" horiz-adv-x="2032" />
<glyph unicode="&#x2002;" horiz-adv-x="1016" />
<glyph unicode="&#x2003;" horiz-adv-x="2032" />
<glyph unicode="&#x2004;" horiz-adv-x="677" />
<glyph unicode="&#x2005;" horiz-adv-x="508" />
<glyph unicode="&#x2006;" horiz-adv-x="338" />
<glyph unicode="&#x2007;" horiz-adv-x="338" />
<glyph unicode="&#x2008;" horiz-adv-x="254" />
<glyph unicode="&#x2009;" horiz-adv-x="406" />
<glyph unicode="&#x200a;" horiz-adv-x="112" />
<glyph unicode="&#x2010;" horiz-adv-x="636" d="M88 508v127h461v-127h-461z" />
<glyph unicode="&#x2011;" horiz-adv-x="636" d="M88 508v127h461v-127h-461z" />
<glyph unicode="&#x2012;" horiz-adv-x="636" d="M88 508v127h461v-127h-461z" />
<glyph unicode="&#x2013;" horiz-adv-x="1060" d="M0 508v127h1061v-127h-1061z" />
<glyph unicode="&#x2014;" horiz-adv-x="2117" d="M0 508v127h2118v-127h-2118z" />
<glyph unicode="&#x2018;" horiz-adv-x="528" d="M193 1104v237q0 102 29 147.5t102 45.5q16 0 32 -4v-80q-39 -1 -54 -17t-15 -55v-71h59v-203h-153z" />
<glyph unicode="&#x2019;" horiz-adv-x="528" d="M182 1108v80q39 1 54.5 17t15.5 55v71h-59v203h153v-238q0 -101 -29 -146.5t-102 -45.5q-17 0 -33 4z" />
<glyph unicode="&#x201a;" horiz-adv-x="528" d="M176 -143q40 1 55 17t15 54v72h-60v203h154v-238q0 -101 -29 -146.5t-102 -45.5q-17 0 -33 4v80z" />
<glyph unicode="&#x201c;" horiz-adv-x="825" d="M184 1104v237q0 102 29 147.5t102 45.5q17 0 33 -4v-80q-39 -1 -54 -17t-15 -55v-71h59v-203h-154zM477 1104v237q0 102 29 147.5t102 45.5q17 0 33 -4v-80q-39 -1 -54.5 -17t-15.5 -55v-71h60v-203h-154z" />
<glyph unicode="&#x201d;" horiz-adv-x="825" d="M184 1108v80q39 1 54.5 17t15.5 55v71h-59v203h153v-238q0 -101 -29 -146.5t-102 -45.5q-17 0 -33 4zM475 1108v80q39 1 54.5 17t15.5 55v71h-60v203h154v-238q0 -101 -29 -146.5t-102 -45.5q-17 0 -33 4z" />
<glyph unicode="&#x201e;" horiz-adv-x="825" d="M178 -143q40 1 55 17t15 54v72h-60v203h154v-238q0 -101 -29 -146.5t-102 -45.5q-17 0 -33 4v80zM471 -143q40 1 55 17t15 54v72h-60v203h154v-238q0 -101 -29 -146.5t-102 -45.5q-17 0 -33 4v80z" />
<glyph unicode="&#x2022;" horiz-adv-x="1249" d="M319 786q0 126 90 215t216 89q125 0 214 -89t89 -215q0 -125 -89.5 -215t-215.5 -90t-215 89.5t-89 215.5z" />
<glyph unicode="&#x2026;" horiz-adv-x="2115" d="M152 0v203h153v-203h-153zM858 0v203h154v-203h-154zM1565 0v203h153v-203h-153z" />
<glyph unicode="&#x202f;" horiz-adv-x="406" />
<glyph unicode="&#x2030;" horiz-adv-x="2451" d="M94 944v236q0 192 49 275t185 83h114q133 0 182.5 -83.5t49.5 -274.5v-236q0 -192 -49.5 -275t-182.5 -83h-114q-136 0 -185 82.5t-49 275.5zM227 956q0 -45 1 -73t4.5 -57t10.5 -45.5t18 -32.5t28.5 -23t40.5 -11.5t55 -4.5q37 0 62.5 4.5t43 18.5t27.5 30t15 48 t6.5 62.5t1.5 83.5v211q0 63 -2 97.5t-10.5 68.5t-25.5 49t-45.5 24t-72.5 9q-37 0 -62.5 -4t-43.5 -17t-28 -28t-15.5 -45.5t-7 -60.5t-1.5 -82v-222zM451 -18l700 1570h125l-701 -1570h-124zM1051 350v236q0 192 49 275t184 83h115q133 0 182 -83t49 -275v-236 q0 -193 -49 -275.5t-182 -82.5h-115q-136 0 -184.5 82.5t-48.5 275.5zM1184 362q0 -53 1.5 -83.5t6.5 -62.5t15 -48t28 -29.5t43.5 -18.5t62.5 -5t62.5 4.5t43 18.5t27.5 30t15 48t6.5 62.5t1.5 83.5v211q0 63 -2 97.5t-10.5 68.5t-25.5 49t-45.5 24t-72.5 9q-45 0 -73 -8 t-45.5 -21.5t-25.5 -45.5t-10.5 -66t-2.5 -96v-222zM1776 350v236q0 192 49 275t184 83h115q133 0 182 -83t49 -275v-236q0 -193 -49 -275.5t-182 -82.5h-115q-136 0 -184.5 82.5t-48.5 275.5zM1909 362q0 -53 1.5 -83.5t6.5 -62.5t15 -48t28 -29.5t43.5 -18.5t62.5 -5 t62.5 4.5t43 18.5t27.5 30t15 48t6.5 62.5t1.5 83.5v211q0 63 -2 97.5t-10.5 68.5t-25.5 49t-45.5 24t-72.5 9q-45 0 -73 -8t-45.5 -21.5t-25.5 -45.5t-10.5 -66t-2.5 -96v-222z" />
<glyph unicode="&#x2039;" horiz-adv-x="501" d="M100 543l183 334h147l-180 -334l180 -332h-147z" />
<glyph unicode="&#x203a;" horiz-adv-x="501" d="M72 211l182 332l-182 334h149l182 -334l-182 -332h-149z" />
<glyph unicode="&#x205f;" horiz-adv-x="508" />
<glyph unicode="&#x20ac;" horiz-adv-x="1058" d="M51 559l39 129h90q-4 40 -4 84q0 32 4 82h-129l39 129h100q14 129 49 230.5t92.5 178.5t144 118.5t196.5 41.5q99 0 179.5 -28t123.5 -66v-166q-103 111 -285 111q-105 0 -181 -56t-115.5 -148t-51.5 -216h549l-39 -129h-524q-2 -23 -2 -82q0 -16 1 -45t1 -39h473 l-41 -129h-418q22 -208 110.5 -317t237.5 -109q176 0 285 109v-168q-38 -37 -118 -63.5t-187 -26.5q-415 0 -477 575h-142z" />
<glyph unicode="&#x2122;" horiz-adv-x="1761" d="M272 1450v59h445v-59h-176v-487h-88v487h-181zM848 963v546h121l170 -434l164 434h118v-546h-73v481l-183 -481h-51l-192 481v-481h-74z" />
<glyph unicode="&#x25fc;" horiz-adv-x="1075" d="M0 0v1075h1075v-1075h-1075z" />
</font>
</defs>
</svg>
