<?xml version="1.0" encoding="utf-8"?>
<!-- Generator: Adobe Illustrator 21.0.0, SVG Export Plug-In . SVG Version: 6.00 Build 0)  -->
<svg version="1.1" id="Layer_1" xmlns="http://www.w3.org/2000/svg" xmlns:xlink="http://www.w3.org/1999/xlink" x="0px" y="0px"
	 viewBox="0 0 282.6 235.9" style="enable-background:new 0 0 282.6 235.9;" xml:space="preserve">
<style type="text/css">
	.st0{display:none;fill:none;}
</style>
<g>
	<g>
		<path d="M7.2,235.7c-3.3-2.7-7.1-4.9-7-10.1c0.1-6.1,3.9-10.5,9.9-11c1.7-0.1,3.3,0,5,0c60,0,120,0,180,0
			c34.8,0,63.5-27,66.7-61.7C265,118.5,243.9,91,219.2,82c-7.1-2.6-14.9-4.3-22.3-4.3c-50.8-0.4-101.6-0.2-152.5-0.2
			c-3,0-5.9,0-10.5,0c2.9,3.1,4.7,5.1,6.6,7.1c10.4,10.5,20.9,21,31.3,31.6c3.1,3.1,4.6,6.8,3.1,11.4c-1.3,3.9-3.8,6.2-7.7,7
			c-4.2,0.9-7.4-1-10.2-3.9c-15.3-15.8-30.6-31.6-45.9-47.4c-2.7-2.8-5.4-5.4-7.9-8.3c-4.3-5-4.3-10.4,0.2-15.2
			c18-18.7,36.1-37.4,54.3-55.9c4.7-4.8,10.3-5.1,14.6-1s4.5,10.5,0,15.2c-6.7,7-13.7,13.5-20.5,20.3C46.3,43.9,41,49.7,36,56.6
			c6.2,0,12.5,0,18.7,0c49,0,98-1.4,146.9,0.5c34.5,1.3,59,21.1,73.1,52.5c19.6,43.6,1.4,95.2-40.8,116.7c-7.2,3.6-15.3,5.4-23,8
			c-1.5,0.5-3.1,1.1-4.6,1.6C139.9,235.7,73.5,235.7,7.2,235.7z"/>
	</g>
</g>
<path class="st0" d="M-231.8-123.4"/>
</svg>
