<?xml version="1.0" encoding="utf-8"?>
<!-- Generator: Adobe Illustrator 21.0.0, SVG Export Plug-In . SVG Version: 6.00 Build 0)  -->
<svg version="1.1" id="Layer_1" xmlns="http://www.w3.org/2000/svg" xmlns:xlink="http://www.w3.org/1999/xlink" x="0px" y="0px"
	 viewBox="0 0 469.4 461.6" style="enable-background:new 0 0 469.4 461.6;" xml:space="preserve">
<g>
	<path d="M0,364.1c0.9-4,1.8-8,2.8-12c10.1-41.8,49.6-70.9,92.4-67.7c14.3,1.1,27.7,5.4,40.5,13.2c5.2-8,10.2-15.8,15.2-23.7
		c3.6-5.8,9.6-11.4,10-17.5c0.4-5.8-5-12-7.8-18c-2.6-5.4-5.4-10.7-7.8-16.2c-1.1-2.5-2.6-3.3-5.3-3.3c-12.2,0.1-24.3,0.2-36.5-0.1
		c-2.6-0.1-6-0.9-7.6-2.6s-2.3-5.2-1.8-7.6c0.7-3.9,4.2-5.4,8-5.5c7.5-0.1,15-0.1,22.5-0.1c7.3,0,14.7,0.1,22-0.1
		c5.2-0.1,8.4,2.1,10.6,6.7c5.8,12.2,11.6,24.3,17.7,36.3c0.8,1.6,3.4,3.3,5.1,3.3c46.2,0.2,92.3,0.1,138.5,0.1c0.8,0,1.6-0.2,3-0.3
		c-2.1-5.8-4-11.2-6-16.6c-6.9-18.9-14-37.8-20.7-56.8c-1.4-3.9-3.2-5-7.2-4.9c-9,0.3-18,0.2-27,0.1c-6.3-0.1-10.1-3.2-10.1-8
		c0-4.8,3.8-7.9,10.1-8c12-0.1,24,0.1,36-0.1c5.5-0.1,8.5,2.5,10.3,7.5c14.8,40.7,29.6,81.3,44.5,122c0.4,1.1,0.8,2.1,1.5,3.7
		c3.9-0.8,7.7-1.6,11.6-2.5c42.7-9.3,95.6,19.2,104,74.4c0.1,0.9,0.6,1.8,0.9,2.8c0,6.7,0,13.3,0,20c-0.3,1.3-0.7,2.5-0.9,3.8
		c-5.3,35.4-31.8,64.5-66.5,73c-2.9,0.7-5.7,1.5-8.6,2.2c-8.7,0-17.3,0-26,0c-1.4-0.4-2.7-1-4.1-1.3c-39.5-8.5-68.6-40.1-71.3-80.4
		c-2.4-35,12-62.7,41.4-82.3c1.6-1.1,3.3-2.1,4.9-3.1c-3-8.3-5.8-16.2-8.8-23.9c-0.8-2-2.7-5.1-4.1-5.1c-4.1,0-8.9-2.3-12.4,2.6
		c-5.3,7.5-11,14.7-16.5,22c-20.4,27-40.8,53.9-61.1,80.9c-2.8,3.8-5.8,6.2-11.1,6.1c-13.6-0.3-27.3,0.2-40.9,0.3
		c-1.6,0-3.2,0-4.7,0c-0.4,2.5-0.7,4.3-1,6.2c-4.7,36.9-30.1,66.1-65.7,75.5c-3.2,0.8-6.4,1.7-9.5,2.5c-8.7,0-17.3,0-26,0
		c-1.2-0.4-2.4-0.9-3.7-1.1c-36.9-8.5-60.3-31.1-70-67.7c-1-3.7-1.6-7.4-2.4-11.1C0,376.1,0,370.1,0,364.1z M358.7,305
		c0.6,1.8,1.1,3.4,1.6,4.9c7.4,20.2,14.8,40.3,22.1,60.5c0.7,2,1.5,4.1,1.8,6.2c0.5,3.9-1.2,6.9-5,8.2c-3.7,1.3-7,0.1-9.1-3.2
		c-1-1.5-1.6-3.3-2.2-5c-5.3-14.4-10.6-28.8-15.8-43.1c-2.7-7.3-5.4-14.6-8.1-22c-30.8,14.4-43.7,57.9-29.3,91.9
		c13.5,31.8,58.1,53.2,95,36.2c32.2-14.8,53.4-58.8,36.9-95.4C431.1,310,385.2,291.8,358.7,305z M126.4,312.2
		c-29.4-17.8-58-16.5-86.9,9c-20.5,17.9-32.3,50.5-15.2,84c13.8,26.9,46.9,45.8,73.3,40.5c38-7.6,58.5-30.5,63.8-67.8
		c-1.9,0-3.7,0-5.4,0c-18,0-36,0-54,0c-3.8,0-7.4-0.6-9.5-4.2c-2.3-3.9-0.8-7.4,1.4-10.7c1.2-1.8,2.3-3.6,3.5-5.5
		C107,342.5,116.6,327.5,126.4,312.2z M187.1,266c13.5,29.7,26.8,58.9,40.4,88.8c22.6-29.9,44.6-59.1,67.1-88.8
		C258.3,266,223,266,187.1,266z M170,273.6c-7.5,11.8-14.5,22.7-21.5,33.6c16.2,15.1,25.4,33.3,28.7,54.3c11.9,0,23.3,0,35.3,0
		C198.3,332.1,184.4,303.3,170,273.6z M160.5,361.6c-3.6-15.7-10.3-28.7-20.9-40.6c-8.8,13.8-17.2,26.9-25.9,40.6
		C129.7,361.6,144.6,361.6,160.5,361.6z"/>
	<path d="M154,0.1c4.5,0.9,9.1,1.7,13.6,2.8c63.6,15.7,86.9,92.2,42.8,140.4c-25.1,27.5-62.7,36-95.2,21.6
		C80.8,149.6,59.6,114.4,63,77.8c3.5-38.5,36.3-72.2,74.7-76.9c1.1-0.1,2.2-0.6,3.3-0.9C145.3,0.1,149.7,0.1,154,0.1z M148,154.9
		c35.1,1.8,68.9-26.8,69-69.1c0.1-37.5-29.3-69.8-71.6-68.9c-37,0.8-66.1,30.6-66.3,69C78.9,129.1,114,156.9,148,154.9z"/>
	<path d="M147.9,74.1c6.4-6.1,12.2-12.1,18.5-17.4c1.9-1.5,6-2.1,8.1-1.1c2.2,1,3.7,4.4,4.5,7c0.4,1.4-0.9,3.9-2.2,5.2
		c-7.9,8.4-15.8,16.7-24.1,24.7c-2.9,2.8-6.9,2.8-9.8-0.2c-12.5-12.5-24.9-25.1-37.2-37.8c-3.8-3.9-3.8-8.4-0.8-11.5
		s7.3-3.2,11.6,0.6c5.3,4.6,10.2,9.6,15.2,14.5C137.1,63.3,142.3,68.6,147.9,74.1z"/>
</g>
</svg>
