<?xml version="1.0" encoding="utf-8"?>
<!-- Generator: Adobe Illustrator 21.0.0, SVG Export Plug-In . SVG Version: 6.00 Build 0)  -->
<svg version="1.1" id="Layer_1" xmlns="http://www.w3.org/2000/svg" xmlns:xlink="http://www.w3.org/1999/xlink" x="0px" y="0px"
	 viewBox="0 0 397.2 356" style="enable-background:new 0 0 397.2 356;" xml:space="preserve">
<style type="text/css">
	.st0{fill:#FFFFFF;enable-background:new    ;}
</style>
<g>
	<g>
		<path d="M0,102c2.1-6.6,3.8-13.3,9.2-18.3c6.5-6.1,13.9-9.5,22.8-9.5c110.8,0,221.6,0,332.5,0c15.6,0,27.2,8.7,31.6,23.8
			c0.2,0.7,0.6,1.4,1,2c0,76.3,0,152.7,0,229c-2.5,8.5-5.8,16.8-14,21.1c-5.2,2.8-11.3,4-17,5.9c-111.7,0-223.3,0-335,0
			c-0.7-0.3-1.4-0.8-2.2-0.9c-9.2-0.7-17-4.5-22.1-12.2c-3-4.5-4.5-9.9-6.7-15C0,252.7,0,177.3,0,102z M197.8,339.1
			c52.7,0,105.3,0,158,0c15.4,0,22-6.5,22.1-21.7c0.1-58.3,0.1-116.6,0.1-174.9c0-11.5-0.3-23-0.4-34.5c-0.1-6.5-3.6-11.3-9.1-13.9
			c-4-1.9-8.9-2.7-13.4-2.7c-34,0-67.9,0.6-101.9,0.5c-46.3,0-92.6-0.5-138.9-0.7c-25.3-0.1-50.7,0-76,0c-13.9,0-20.7,9.4-20.6,20.8
			c0.4,69,0.4,138,0,207c-0.1,11.2,9.1,20.3,20.3,20.2C91.2,338.9,144.5,339.1,197.8,339.1z"/>
		<path d="M274,0c8.3,3.4,11.2,9.8,11.1,18.5c-0.3,12.1-0.1,24.3-0.1,36.9c-4.6,0-9,0-14,0c-0.1-2-0.4-4.1-0.4-6.2
			c0-9.8-0.1-19.7,0-29.5c0-4.1-1.4-6-5.8-6c-44.1,0.1-88.3,0.1-132.4,0c-4.4,0-5.8,1.6-5.8,5.9c0.2,11.8,0.1,23.6,0.1,35.8
			c-4.8,0-9.4,0-14.7,0c0-4.6,0-9.1,0-13.7c0-8.2,0-16.3,0-24.5c0.1-8,3.4-13.9,11-17.2C173.3,0,223.7,0,274,0z"/>
		<path d="M285,215.5c0,9,0,18,0,27c0,6.2-2.3,8.4-8.3,8.5c-12.3,0-24.7,0-37,0c-7.1,0-7.1,0-7.1,7.3c0,11.5,0,23,0,34.5
			c0,6.5-1.7,8.8-8.3,8.9c-17.8,0.3-35.6,0.3-53.5,0c-6.2-0.1-8-2.6-8-9c0-13.3-0.2-26.7,0.1-40c0.1-4.2-1.3-5.5-5.5-5.5
			c-12.5,0.2-25,0.1-37.5,0.1c-5.9,0-7.9-1.8-8-7.7c-0.1-18.2-0.1-36.3,0-54.5c0-6.1,2.5-8.3,8.6-8.3c13,0,26-0.1,39,0.1
			c3.7,0,5-1.2,5-4.9c-0.2-12-0.1-24,0-36c0-5.3,1.9-7.3,7.1-7.3c18.5-0.1,37,0,55.5-0.1c4.2,0,5.5,2.2,5.5,5.9
			c0,13.3,0.2,26.7-0.1,40c-0.1,4.3,1.2,5.8,5.7,5.7c12.5-0.2,25-0.1,37.5-0.1c7.8,0,9.3,1.5,9.3,9.3C285,198.2,285,206.9,285,215.5
			z M151.7,194.9c-7.3,0-14.7,0.2-22-0.1c-3.8-0.1-4.9,1.4-4.8,5c0.2,9.8,0.2,19.7,0,29.5c-0.1,4.3,1.5,5.4,5.6,5.3
			c12.2-0.2,24.3-0.1,36.5-0.1c8.1,0,9.7,1.6,9.7,9.5c0,12.5,0.1,25-0.1,37.5c-0.1,4,1.2,5.7,5.4,5.6c10.5-0.2,21-0.2,31.5,0
			c4.2,0.1,5.5-1.3,5.4-5.5c-0.2-12.7-0.1-25.3-0.1-38c0-7.4,1.6-9.1,9-9.1c13.3,0,26.7-0.1,40,0.1c3.9,0.1,5.2-1.3,5.2-5.2
			c-0.2-9.7-0.2-19.3,0-29c0.1-4.1-1.3-5.6-5.5-5.6c-13,0.2-26,0.1-39,0.1c-6,0-8-2-8-8.1c0-12.7,0-25.3,0-38c0-6.3-0.3-6.6-6.4-6.6
			c-9.2,0-18.3,0.2-27.5-0.1c-4.3-0.1-5.9,1.1-5.8,5.6c0.3,12.8,0.1,25.7,0.1,38.5c0,6.4-2.3,8.6-8.7,8.7
			C165.3,195,158.5,194.9,151.7,194.9z"/>
	</g>
</g>
<path class="st0" d="M397.2,0"/>
</svg>
