<?xml version="1.0" encoding="utf-8"?>
<!-- Generator: Adobe Illustrator 21.0.0, SVG Export Plug-In . SVG Version: 6.00 Build 0)  -->
<svg version="1.1" id="Layer_1" xmlns="http://www.w3.org/2000/svg" xmlns:xlink="http://www.w3.org/1999/xlink" x="0px" y="0px"
	 viewBox="0 0 404 461" style="enable-background:new 0 0 404 461;" xml:space="preserve">
<style type="text/css">
	.st0{fill:#FFFFFF;enable-background:new    ;}
</style>
<g>
	<g>
		<path d="M194,461c-10.7-1-21.5-1.9-32.2-3.1c-15.7-1.7-31.3-3.6-47-5.5c-9.7-1.2-15.5-7-18.5-15.9c-2.7-7.8-5.3-15.7-7.8-23.6
			c-9.3-29-13.7-58.9-13.1-89.3c0.4-22.1,3-44.2,9.3-65.5c4.3-14.3,9.3-28.3,14.2-42.4c1.9-5.3,6.2-8.2,11.5-9.1
			c8.7-1.4,17.4-2.5,26.1-3.6c9.3-1.2,18.6-2.4,29-3.8c-2.9-2.2-5.3-3.8-7.4-5.7c-6.4-5.6-8-13-7.8-21.1c0.2-9.2,0.2-18.3,0.1-27.5
			c-0.1-6.7-5.2-11-11.6-9c-9.1,2.8-18,6.5-27,9.9c-16,6.2-32,12.6-48,18.9c-14.1,5.7-28.2,11.4-42.3,17.2C14.3,185,7.2,188,0,191
			c0-3.3,0-6.7,0-10c0.6-5.7,1.3-11.4,1.9-17.1c0.5-5,1-9.9,1.4-14.9c0.2-2.6,1.2-4,3.8-5c21.6-8.4,43.1-17,64.7-25.4
			c15.6-6.1,31.2-11.9,46.9-17.7c2.9-1.1,4.4-2.4,4.8-5.9c3.3-28.7,32.3-43.8,57.3-38.1c13.6,3.1,24.1,10.5,30.7,22.4
			c9.5,17.2,6.6,36.1-6.8,49.5c-2.9,2.9-6.5,5.2-9.4,8.2c-1.5,1.5-2.8,3.7-3.3,5.8c-4.7,19.2,5.4,30.6,20.4,40.4
			c18.4,12.1,38.6,14.6,59.8,15.8c22.2,1.3,44.3,4.4,66.5,6.7c7.9,0.9,12.8,5.3,15.1,13c1.9,6.2,4.1,12.2,6.4,18.3
			c7.9,21.2,12.5,43.2,14.3,65.5c1.9,23.9,1.6,47.8-2.6,71.6c-4,22.8-10.7,44.8-19,66.3c-3.3,8.6-11.1,11.4-19.5,12.3
			c-20.7,2.3-41.3,4.4-62,6.6c-4.4,0.5-8.9,1-13.3,1.5C236.7,461,215.3,461,194,461z M202.4,208.5c-0.1,0.4-0.2,0.8-0.3,1.1
			c-5.6,0.4-11.2,0.6-16.7,1.2c-23,2.5-45.9,5.1-68.9,8c-1.8,0.2-4.1,2-4.9,3.6c-8.2,18.1-13.3,37-17.3,56.4
			c-5.8,28.7-6.8,57.5-2.4,86.4c3.6,23.7,9.2,46.9,18.9,68.9c1.4,3.3,3.4,4.4,6.6,4.9c26.5,4.5,53.1,7.4,79.9,7.8
			c24.3,0.4,48.7,0.3,72.9-1.1c21.4-1.2,42.6-4.3,63.9-7c2.1-0.3,4.8-2.5,5.7-4.5c2.9-6.5,5.4-13.2,7.5-20
			c6.7-21.6,12-43.5,13.2-66.2c1.1-20.7,0.8-41.3-2.4-61.8c-3.2-20.5-9.3-40.4-16.3-59.9c-2.7-7.6-3.6-8.1-11.9-8.4
			c-1.7,0-3.3-0.2-5-0.3c-23.8-2.3-47.7-4.5-71.5-6.8c-4.5-0.4-9-0.7-13.3-1.6c-17.8-3.5-33.3-12.1-47.2-23.4
			c-7.1-5.8-13.6-12.9-14.5-22.4c-0.8-8.8-0.3-17.8,1-26.6c0.5-3.7,4.3-7.1,7-10.3c1.5-1.8,3.9-3,5.8-4.5
			c9.7-7.8,11.7-18.3,9.2-29.7c-2.3-10.9-9.8-18.3-20.2-21.3c-20.4-6-41.7,3.5-44.4,28c-0.5,4.9-2.3,9.5-7.4,11.5
			c-7.1,2.8-14.2,5.5-21.3,8.3c-14.5,5.7-29,11.4-43.5,17c-15.1,5.9-30.3,11.6-45.4,17.6c-1.1,0.4-2.3,1.9-2.5,3.1
			c-0.6,4-0.7,8.1-1,13.2c13.6-5.4,26.2-10.4,38.7-15.5c10.8-4.3,21.4-8.9,32.2-13.1c15.3-5.9,30.7-11.3,45.9-17.5
			c14.9-6,31.2,4.3,31.4,20.4c0.1,9.2,0.4,18.4-0.1,27.5c-0.4,7.3,2.7,11.7,8.5,15.6C182.6,194,192.4,201.4,202.4,208.5z"/>
		<path d="M404,36c-58.1,21.8-116.2,43.5-174.9,65.5c-4.4-12.5-8.7-24.6-13.2-37.2c4-1.6,7.9-3.3,11.9-4.8c19-7,38-13.7,56.9-20.8
			c22.9-8.6,45.7-17.5,68.6-26.3C364.2,8.2,375.1,4.1,386,0c0.7,0,1.3,0,2,0c1.7,4.1,3.3,8.2,5.1,12.2c3.5,7.6,7.2,15.2,10.9,22.8
			C404,35.3,404,35.7,404,36z M237.5,84.2C287,65.6,336,47.2,385,28.8c-1.7-4.3-3.2-8-4.8-12c-48.9,18.3-97.6,36.6-146.5,54.9
			C235,76.1,236.2,79.9,237.5,84.2z"/>
		<path d="M106.7,333.9c1.5-15.3,2.5-29.7,4.4-44c2.2-15.6,5.6-31,11.7-45.7c3.3-8,9.7-11.9,17.4-13.1c30-4.7,60.3-5.7,90.6-5.6
			c27.7,0.1,55.2,2.2,82.6,5.6c6.1,0.8,11.2,3.6,13.6,10.1c8.1,22.1,13.7,44.7,15.1,68.3c0.3,5,0.7,10,0.7,15c0,7.3-2.2,9.4-9.4,9.4
			c-73,0-145.9,0-218.9,0C112.6,333.9,110.6,333.9,106.7,333.9z M122.9,320.9c1.8,0,2.9,0,4,0c65.6,0,131.3,0,196.9,0
			c0.5,0,1,0,1.5,0c2.7,0.3,3.6-1,3.3-3.5c-1.7-12.9-2.7-25.8-5.1-38.5c-1.9-9.9-5.9-19.4-8.3-29.2c-0.9-3.8-2.6-5.3-6.2-5.6
			c-7.8-0.7-15.6-1.3-23.3-2.2c-34.5-4.2-69.1-4.1-103.7-1.7c-12.8,0.9-25.5,2.5-38.2,4c-5.3,0.6-8.5,3.8-9.7,9.2
			c-1.9,8.4-4.2,16.7-6.5,25C123.8,292.1,122.4,306,122.9,320.9z"/>
		<path d="M150.9,99.8c-1-10.9,10.2-18.1,19-17.8c10.8,0.3,19.5,7.9,19.4,17.7c0,9.3-8.1,18.1-19.6,18.2
			C160.9,118,149.9,110.7,150.9,99.8z M170.1,107c2.2-3.4,4.5-5.4,4.4-7.3c-0.1-1.6-3.1-4.6-4.4-4.4c-2,0.3-4.9,2.8-5.1,4.5
			C164.8,101.6,167.5,103.7,170.1,107z"/>
	</g>
</g>
<path class="st0" d="M404,0"/>
</svg>
