<?xml version="1.0" encoding="utf-8"?>
<!-- Generator: Adobe Illustrator 21.0.0, SVG Export Plug-In . SVG Version: 6.00 Build 0)  -->
<svg version="1.1" id="Layer_1" xmlns="http://www.w3.org/2000/svg" xmlns:xlink="http://www.w3.org/1999/xlink" x="0px" y="0px"
	 viewBox="0 0 453 387.4" style="enable-background:new 0 0 453 387.4;" xml:space="preserve">
<style type="text/css">
	.st0{fill:#FFFFFF;enable-background:new    ;}
</style>
<g>
	<g>
		<path d="M173.7,187.6c0.5-43.8,8.7-90.8,27.1-135.8c1.3-3.1,2.7-6.1,4.1-9.1c2.5-5.2,7.5-7.3,12.9-4.7c4.3,2.1,8.3,4.9,12.4,7.4
			c39.1,24.7,78.3,49.5,117.4,74.2c31.5,19.9,63.1,39.8,94.6,59.8c2.5,1.6,5.1,3.3,7.2,5.3c5.4,5.1,4.5,12.4-1.8,16.4
			c-59.5,37.5-118.9,74.9-178.4,112.4c-15.2,9.6-30.4,19.2-45.7,28.7c-2.7,1.7-5.6,2.9-8.6,4c-6.2,2.2-10.8,0-13.1-6.1
			C183.7,292.4,173.8,243.3,173.7,187.6z M221,63.6c-1.5,0.9-3.4,1.5-4.3,2.8c-1.7,2.4-3,5.2-3.9,7.9c-7.2,20.8-12.4,42.2-15.4,64
			c-8.1,59.9-3.2,118.7,15.9,176.1c2,6.1,6,7.5,11.5,4.1c8.5-5.3,16.9-10.7,25.3-16c54.7-34.4,109.4-68.8,164.1-103.3
			c8.3-5.2,8.1-9.4-0.2-14.7c-33.1-20.8-66.2-41.7-99.3-62.6c-29.6-18.7-59.1-37.4-88.7-56C224.6,65.1,223,64.6,221,63.6z"/>
		<path d="M10.6,94.8c14.8,1.9,29.7,3.9,44.5,5.8c30,4,60,8,90.1,12c8.9,1.2,13.1,8.2,9,15.1c-2.5,4.3-6.5,5.1-11.2,4.5
			c-38.9-5.2-77.9-10.4-116.8-15.6c-6.3-0.8-12.6-1.5-18.8-2.8c-5.2-1.1-8.2-6-7.2-10.9C1.2,97.9,5.4,94.6,10.6,94.8z"/>
		<path d="M10.3,295.8c-5.4,0-9.8-4-10.3-9.1c-0.4-5.1,3-9.4,8.7-10.4c9.2-1.5,18.5-2.6,27.7-3.8c35.6-4.8,71.3-9.5,106.9-14.3
			c4.5-0.6,8.3,0.4,10.8,4.4c2.3,3.6,2.3,7.6-0.5,10.7c-2,2.1-5.1,3.9-8,4.3c-25.7,3.7-51.4,7-77.2,10.4c-18.6,2.5-37.3,5-55.9,7.5
			C11.8,295.5,11,295.7,10.3,295.8z"/>
		<path d="M167.3,337c0.1,4.3-2.9,8.1-7.9,9.7c-16.9,5.2-33.7,10.4-50.6,15.6c-26.2,8.1-52.5,16.2-78.7,24.4
			c-4.7,1.5-8.7,0.7-11.7-3.1c-2.7-3.4-3.1-7.7-0.2-11.1c1.8-2.1,4.7-3.7,7.4-4.6c38.8-12.1,77.6-24.1,116.4-36.1
			c4.3-1.3,8.6-2.8,12.9-4C161,326,167.2,330.6,167.3,337z"/>
		<path d="M168,53.7c-0.1,6.9-6.6,11.2-13.5,9c-29.5-9.5-59-19-88.4-28.4c-13.8-4.4-27.6-8.8-41.4-13.2c-4.8-1.5-7.1-4.8-7.3-9.6
			c-0.1-4.4,3.2-8.3,7.8-9.1c1.9-0.3,4-0.1,5.8,0.5c43,13.7,85.9,27.4,128.9,41.2C164.9,45.6,168,49.4,168,53.7z"/>
		<path d="M75.1,182.1c20,0,40,0,59.9,0c2.3,0,4.7,0.1,6.9,0.6c4.7,1.1,7.1,4.5,7.3,9c0.2,4.6-2.1,8.1-6.7,9.4
			c-2.2,0.6-4.6,0.9-6.9,1c-40.6,0.4-81.3,0.7-121.9,1c-2.9,0-6.5-0.1-8.6-1.8c-2.4-1.9-4.9-5.6-4.8-8.4c0.1-2.8,2.7-6.3,5.1-8.2
			c1.9-1.5,5.4-1.5,8.1-1.6c20.5-0.1,41-0.1,61.4-0.1C75.1,182.7,75.1,182.4,75.1,182.1z"/>
	</g>
</g>
<path class="st0" d="M452.1,0"/>
</svg>
