<?xml version="1.0" encoding="utf-8"?>
<!-- Generator: Adobe Illustrator 21.0.0, SVG Export Plug-In . SVG Version: 6.00 Build 0)  -->
<svg version="1.1" id="Layer_1" xmlns="http://www.w3.org/2000/svg" xmlns:xlink="http://www.w3.org/1999/xlink" x="0px" y="0px"
	 viewBox="0 0 425.1 411.9" style="enable-background:new 0 0 425.1 411.9;" xml:space="preserve">
<style type="text/css">
	.st0{enable-background:new    ;}
</style>
<g>
	<g>
		<path d="M0,112.8c4.9-16,9.8-32,14.7-48c4.3-14.3,8.8-28.5,12.6-43C31.1,7,45.2,0.8,57.8,3.3c26.9,5.5,52,14.8,74.3,31.1
			c21.2,15.4,36.2,35.5,45.1,60.1c1.6,4.5,3.8,6.5,9,6.4c39.8-0.2,79.7-0.1,119.5-0.2c9.2,0,17.8,2.3,25.6,6.9c4.3,2.5,8,3,12.7,1.7
			c18.4-4.9,35.6-2.5,50.8,9.6c9.1,7.2,14.9,17,19.2,27.6c6,14.7,9.3,30.1,10.2,45.9c0.5,10.1,0.7,20.3,0.9,30.4
			c0.1,6.7-2.9,10.8-7.3,10.4c-4.5-0.4-6.5-4.8-6.4-11.2c0.6-25.1,0-50.2-10.4-73.8c-6.2-14-16.4-23.9-32-26.6
			c-5-0.9-10.3-0.5-15.4-0.4c-2.8,0.1-3.7,2-2.5,4.6c1.4,3,2.8,6.1,4.7,8.8c0.9,1.2,3,2.5,4.4,2.3c9-1,15.7,2.8,21.1,9.6
			c9.1,11.3,12.3,24.8,14.3,38.8c1.2,8.5,1.8,17.2,2.5,25.7c0.2,2.3,0.2,4.7-0.3,6.9c-0.8,3.8-3.2,6.3-7.4,5.8
			c-4.1-0.4-6.1-3.1-6.3-7.1c-0.4-6.5,0-13-1.1-19.4c-2.1-12.4-4.7-24.7-7.9-36.8c-0.9-3.4-4.3-6.8-7.4-8.8c-5-3.3-7.7-1.4-7.7,4.6
			c0,54,0,108,0,162c0,2.3-0.3,4.6-0.9,6.9c-0.8,3.4-3.4,4.8-6.7,4.7c-3.6-0.2-5.8-2.3-6.5-5.8c-0.3-1.6-0.2-3.3-0.2-5
			c0-54.8,0-109.6-0.1-164.5c0-4.8-0.6-9.6-1.8-14.2c-3.3-13.4-19.3-25.6-33.3-25.5c-43.7,0.2-87.3,0-131,0
			c-8.8,0-10.1-0.9-12.7-9.4c-9.9-32.1-30.3-55.3-59.5-71.2c-17.5-9.6-36.5-14.7-56-18.4c-5.3-1-8.2,1-9.9,6.7
			c-5.5,18.4-11,36.9-16.5,55.3c-3.1,10.3-6,20.7-9.2,31c-1.4,4.4-0.9,7.4,3.9,8.9c1.9,0.6,3.6,2.3,5.4,2.4c2.2,0.2,5.2-0.1,6.7-1.4
			c10.5-8.9,20.7-18.3,31.1-27.3c4-3.4,8.7-5.9,14.1-3.8s8.3,6.4,8.9,12.1c0.3,2.5,0.6,5,0.7,7.5c0.6,31.5,1,63,1.7,94.4
			C89,238.4,90,275.2,90.9,312c0.1,3.2,0.7,6.3,0.7,9.5c0,5.1-3.5,9.2-7.4,9s-6.8-4-6.9-8.9c-0.6-27.6-1.1-55.3-1.7-82.9
			c-0.5-24.5-1.1-48.9-1.8-73.4c-0.5-18.6-1.1-37.3-1.8-55.9c-0.1-1.5-1.1-2.9-1.7-4.3c-1.3,0.5-2.9,0.8-3.9,1.7
			c-8.8,7.6-17.7,15.2-26.3,23c-6.4,6-12.1,7-20.3,3.2c-2-0.9-3.9-1.9-5.9-2.6C7,128.1,2.1,123.9,0,116.8C0,115.5,0,114.1,0,112.8z"
			/>
		<path d="M211,411.8c-5.7-0.6-11.4-1.4-17.1-1.8c-28.4-2.2-55.5-9.2-81.7-20.2c-34.2-14.3-64.5-34.4-90.5-60.9
			c-5.4-5.5-6.1-8.9-2.7-12.3c3.2-3.2,7.5-2.3,12.4,2.7c36.7,37,80.2,61.6,131.3,72.4c21.5,4.5,43.3,6.9,65.3,5.9
			c58.1-2.7,110.5-21.2,155.6-58.6c7.8-6.5,14.9-13.8,22.5-20.5c1.9-1.7,4.4-3.3,6.8-3.5c5.3-0.5,8.5,4.8,5.9,9.5
			c-1,1.9-2.5,3.6-4,5.1c-42.4,41.5-92.6,68.1-151.4,77.9c-11.2,1.9-22.7,2.4-34.1,3.5c-1.5,0.2-2.9,0.6-4.3,0.9
			C220.3,411.8,215.7,411.8,211,411.8z"/>
		<path d="M218.4,228.2c-16,0-32,0.5-48-0.1c-16.8-0.6-36.6,10.9-38.7,36.2c-1.3,14.7-3.5,29.2-5.4,43.9c-1.3,9.8-2.8,19.6-4.1,29.4
			c-0.7,5-3.8,8.5-7.7,8.1c-4.3-0.4-6.6-4.4-5.9-9.6c3.3-25,6.7-49.9,9.5-74.9c2.4-21.3,22.7-42.9,44.4-46.2
			c4.2-0.6,8.6-0.9,12.9-0.9c29.5-0.1,59,0.2,88.5-0.1c28.6-0.3,54.3,22.2,56.1,52.9c0.8,13.8,3.5,27.5,5.4,41.3
			c1.3,9.5,2.8,19,3.9,28.5c0.6,4.7-1.8,8-5.8,8.4c-4.6,0.5-7.1-1.9-7.7-6.4c-1.3-9.3-2.7-18.7-4-28c-2-14.7-3.9-29.5-6.1-44.2
			c-0.9-6-1.5-12.4-4.1-17.7c-6.5-13.4-17.6-20.4-32.7-20.5C252.1,228.1,235.2,228.2,218.4,228.2z"/>
		<path d="M229.9,165.8c-19.9,0.3-37.6-5.6-53.8-16.2c-2.9-1.9-5.3-4.3-4.3-8.2c1.2-4.9,6.6-6.8,11-3.7c15,10.6,31.7,14.9,49.8,14.6
			c16.7-0.3,31.9-5.6,46.3-13.8c2.1-1.2,5-2.8,6.7-2.2c2.4,0.9,5.2,3.5,5.7,5.9c0.4,2-1.7,5.5-3.7,6.7
			C269.8,159.5,250.7,166,229.9,165.8z"/>
	</g>
</g>
<path class="st0" d="M425.1,0"/>
</svg>
