<?xml version="1.0" encoding="utf-8"?>
<!-- Generator: Adobe Illustrator 21.0.0, SVG Export Plug-In . SVG Version: 6.00 Build 0)  -->
<svg version="1.1" id="Layer_1" xmlns="http://www.w3.org/2000/svg" xmlns:xlink="http://www.w3.org/1999/xlink" x="0px" y="0px"
	 viewBox="0 0 408.2 461" style="enable-background:new 0 0 408.2 461;" xml:space="preserve">
<style type="text/css">
	.st0{enable-background:new    ;}
</style>
<g>
	<g>
		<path d="M0.1,446c4.2-6.7,11.4-5,17.5-5.8c12.3-1.7,23.5-5.6,33-13.8c5.7-4.9,8.9-4.7,14.8,0.1c14,11.4,30,15.4,47.8,13.7
			c13.8-1.3,26-6,36.5-15.2c3.8-3.4,8.3-2.8,12.6,0.9c21.7,18.8,57.3,20,80.3,2.8c1.3-1,2.5-2.2,3.8-3.3c4.1-3.3,8.8-3.6,12.6,0
			c21.3,20.3,63.1,20.3,84.6,0.2c4.3-4,8.8-3.9,13-0.1c11.5,10.7,25.6,14.3,40.6,15.2c5.1,0.3,8.5,1.9,11,6.2c0,2.3,0,4.7,0,7
			c-4.6,7.5-12.1,7.5-19,5.9c-9.6-2.2-19.8-4.5-27.9-9.5c-8.8-5.4-14.6-3.5-22.9,0.4c-18.2,8.6-37.3,14.7-57.7,6.3
			c-9.4-3.9-18.9-7.8-29.1-12c-33.3,20.5-60,21.5-96.1-0.7c-1.2,0.7-2.4,1.5-3.7,2.3c-12.5,7.7-26.1,12.1-40.7,13.2
			c-18.1,1.4-34.3-4.5-49.6-13.4c-1.4-0.8-4-1.6-5-0.9c-12.1,7.9-25.5,12.2-39.6,14.7c-7,1.3-13.2,1.4-16.5-6.4
			C0.1,451.3,0.1,448.7,0.1,446z"/>
		<path d="M408.1,401c-5.9,8.2-14.3,5.7-21.9,4.6c-11.7-1.8-22.8-5.6-32.7-12.3c-2.4-1.6-4-1.7-6.6-0.1c-30.2,18-60.5,18-90.8,0.1
			c-2.7-1.6-4.5-1.4-7.1,0.2c-29.9,17.6-60,17.7-89.9,0.1c-2.7-1.6-4.5-1.8-7.5-0.1c-29.7,17.5-59.6,17.8-89.5,0.3
			c-3.1-1.8-5.2-2.1-8.4-0.1c-12.8,8.2-27.1,12.1-42.3,13c-5,0.3-8.6-1.9-11.4-5.7c0-2.7,0-5.3,0-8c3.1-4.2,7.4-5.6,12.5-5.7
			c14.8-0.3,28-4.9,39.1-15c3.9-3.6,8.5-3.2,12.6,0.4c22.7,19.9,61.4,20.1,84.1,0.4c4.6-4,9.2-4.4,13.3-0.5
			c12.5,11.6,27.7,15.3,44.1,14.9c15.5-0.3,29.4-4.8,41-15.5c3.4-3.1,8.5-3,11.8,0.3c20.7,20.4,64.1,20.2,84.9,0.4
			c4.3-4.1,8.9-3.9,13.3,0.1c10.3,9.3,22.5,13.7,36.3,14.4c6,0.3,11.8,0.5,14.9,6.9C408.1,396.3,408.1,398.7,408.1,401z"/>
		<path d="M408.1,347c-2.6,5.2-6.8,6.4-12.4,6.2c-15.5-0.5-29.6-5.1-42.8-13c-1.3-0.8-3.9-1-5.2-0.2c-31.6,18.4-63,18.1-94.2-1.1
			c-0.3-0.2-0.6-0.3-1-0.5c-10.7,6.8-22,11.8-34.8,13.7c-21,3.2-40.6-0.5-58.7-11.6c-2.8-1.7-4.6-1.8-7.5-0.1
			c-29.8,17.4-59.9,17.4-89.8,0.2c-3-1.7-4.8-2-7.9,0c-13,8.2-27.4,12.3-42.8,12.7c-4.8,0.1-8.3-1.6-11-5.3c0-2.7,0-5.3,0-8
			c4-6.7,11-5.1,16.9-5.8c12.6-1.6,24.1-5.6,33.8-14.2c4.8-4.3,9-4.2,14.2,0.1c23.7,19.7,59.7,19.6,83.5-0.3
			c4.9-4.1,9.3-3.9,14.2,0.3c13.8,11.7,29.9,15.7,47.7,14.1c13.7-1.3,26.1-5.7,36.4-15.2c3.7-3.4,8.7-3,12.7,0.6
			c20.5,18.7,55.8,19.8,78.7,4.2c2.1-1.4,3.8-3.2,5.8-4.7c4.2-3.2,8.9-3.3,12.7,0.3c11.4,10.7,25.5,14.5,40.5,15.2
			c5.1,0.2,8.6,1.9,10.9,6.3C408.1,343,408.1,345,408.1,347z"/>
		<path d="M124.3,176.7c0-6.7,0-12.3,0-18.5c55.8,0,111.6,0,167.5,0c0-11.6,0-22.7,0-34.3c-55.8,0-111.4,0-167.3,0
			c0-6.5,0-12.6,0-19.1c55.7,0,111.3,0,167.1,0c0.5-5.9,0.5-11.4,1.4-16.7c1.8-10.7,7.6-19.2,15.5-26.6c11-10.3,24.2-11.6,38.1-10.4
			c5.3,0.4,8.8,4.6,8.8,9.7c0,4.9-3.7,9-9,9.5c-4.1,0.4-8.3,0.2-12.5,0.7c-13.6,1.4-22.8,11.7-22.9,25.5c0,69.5,0,139,0,208.5
			c0,2.1-0.1,4.3-0.8,6.3c-1.6,5-5.4,7.4-10.2,6.7c-4.5-0.6-7.8-4.4-8-9.4c-0.1-4.2,0-8.3,0-12.5s0-8.3,0-13.1
			c-55.9,0-111.6,0-167.6,0c0-6.6,0-12.5,0-18.8c55.7,0,111.3,0,167.2,0c0-11.5,0-22.5,0-34.1c-55.5,0-111.1,0-167.1,0
			c0-6.5,0-12.5,0-19.1c55.5,0,111.1,0,167.1,0c0-11.5,0-22.6,0-34.4C236.1,176.7,180.4,176.7,124.3,176.7z"/>
		<path d="M116,201c0,35.1,0,70.3,0,105.4c0,6.7-2.8,10.8-7.9,11.5c-5.4,0.8-10.3-3-11-8.5c-0.1-1.2,0-2.3,0-3.5
			c0-69.6,0-139.3,0-208.9c0-27.5,24.3-50.3,54.5-46.1c5.6,0.8,8.6,4.6,8.4,10.4c-0.1,5-3.3,8.4-8.8,8.9c-4.3,0.4-8.7,0.2-12.9,0.7
			C126,72.2,116.2,82.6,116.2,95C116,130.4,116.1,165.7,116,201C116.1,201,116.1,201,116,201z"/>
	</g>
</g>
<path class="st0" d="M271.3,0"/>
</svg>
