<?xml version="1.0" encoding="utf-8"?>
<!-- Generator: Adobe Illustrator 21.0.0, SVG Export Plug-In . SVG Version: 6.00 Build 0)  -->
<svg version="1.1" id="Layer_1" xmlns="http://www.w3.org/2000/svg" xmlns:xlink="http://www.w3.org/1999/xlink" x="0px" y="0px"
	 viewBox="0 0 376 427.9" style="enable-background:new 0 0 376 427.9;" xml:space="preserve">
<style type="text/css">
	.st0{fill:#FFFFFF;enable-background:new    ;}
</style>
<g>
	<g>
		<path d="M0,65.6c1.3-5.7,2.3-11.5,3.9-17.1C8.9,31.7,17.5,17.2,33,8.4c7.3-4.2,16.1-8.1,24.2-8.1s16.7,4,24,8.2
			c17.8,10.1,26.7,27.1,30.6,46.4c5,24.9,2.3,49.2-9.9,71.9c-4.2,7.7-9.7,14.3-16.9,19.4c-2.5,1.8-3.6,3.7-3.5,6.9
			c0.2,21.2,0.4,42.3-0.1,63.5c-0.2,6.9,1.9,12.3,6.4,17.1c7.2,7.7,10,16.6,9.9,27.2c-0.3,40.3-0.5,80.7,0,121
			c0.3,25.4-13.5,39.8-35.2,45.1c-12.4,3-22.6-2.7-31.6-10.1c-10.1-8.3-14.3-19.3-14.2-32.5c0.3-41.8,0.3-83.6-0.1-125.5
			c-0.1-9.7,3-17.6,9.1-24.5c4.8-5.4,7-11,6.8-18.4c-0.5-21-0.1-42-0.3-63c0-2.2-1.4-5.2-3.1-6.5C12.9,133.9,5.6,116.6,1.9,97.2
			C1.2,93.4,0.6,89.5,0,85.6C0,78.9,0,72.3,0,65.6z M32.4,321.8c0,21.8,0,43.7,0,65.5c0,12.9,11.2,23.5,24.7,23.4
			c13.4,0,24.4-10.7,24.4-23.7c0-41.8-0.2-83.7,0.2-125.5c0.1-7.5-2.1-13.3-7.1-18.8c-6.1-6.7-9.2-14.4-9-24
			c0.5-24.2,0.3-48.3,0.1-72.5c0-4.5,1.2-7.5,5.3-9.7c8.6-4.7,14.7-11.9,18.8-20.7c7.6-16.2,9.6-33.2,7.6-50.9
			c-1.8-15.3-7.4-28.4-18.8-39c-9.4-8.7-23.1-11.1-34.6-5.6S25.6,35.4,21.2,46.9c-8.1,21.4-6.6,42.9,1.1,64.1
			c3.7,10.1,9.6,18.9,19,24.2c5.9,3.3,7.5,7.7,7.4,13.8c-0.1,22.2-0.3,44.3,0,66.5c0.1,10.8-2.6,20.2-10.2,28.2
			c-4.6,4.8-6.6,10.5-6.4,17.6C32.8,281.5,32.4,301.6,32.4,321.8z"/>
		<path d="M376,388.6c-1.7,5.5-2.7,11.3-5.2,16.4c-6.9,14.3-25.4,24.4-40.3,22.7c-15.6-1.8-31.6-16.4-35.1-32.1
			c-0.6-2.9-0.9-5.9-0.9-8.9c-0.1-45.3-0.1-90.6,0-136c0-3.5-0.7-5.6-4.2-7.4c-8.4-4.4-12.4-12-12.4-21.2
			c-0.2-40.7-0.5-81.3,0.1-122c0.3-20.4,3.7-40.5,12.3-59.4c10.2-22.3,26.6-36.5,51.1-40.6c3-0.5,6.6,0.4,9.6,1.5
			c14,5.1,22.7,14.9,25,29.9C376,150.6,376,269.6,376,388.6z M310.2,230.9c0,2.2,0,4.2,0,6.1c0,49.7,0,99.3,0,149
			c0,18.6,19.6,30.6,36.1,21.9c9.9-5.2,13.3-13.9,13.2-24.9c-0.2-61.5-0.1-123-0.1-184.5c0-16,0.3-32,0.3-48
			c0-21.6-0.2-43.3-0.3-64.9c0-16.8-0.3-33.6,0.1-50.5c0.3-12.8-9.9-20.1-22.5-17.3c-14,3-22.7,12.4-29.4,24.3
			c-11.5,20.5-13.8,43.1-14.1,65.8c-0.5,36.7,0,73.3-0.2,110c0,7.9,3,13.7,12.8,12.8C307.3,230.6,308.5,230.8,310.2,230.9z"/>
		<path d="M155.7,321.4c0-20.5,0.5-41-0.2-61.5c-0.3-10.3,2.9-18.6,9.5-25.8c4.6-5.1,6.7-10.6,6.6-17.5c-0.3-22.7-0.3-45.3-0.2-68
			c0-3.2-1.1-4.7-4-5.9c-18.5-8.1-28.4-23-28.6-42.8c-0.2-29.3-0.1-58.7,0-88c0-2.5,0.4-5.8,2-7.4c1.9-2,5.5-4.1,7.8-3.6
			c3.5,0.8,6.6,2.7,6.3,8.3c-0.8,15.6-0.3,31.3-0.3,47c0,13.7,0,27.3,0,41c0,17.4,8.5,28.7,25,33.3c6.2,1.7,8.1,3.8,8.1,10.1
			c0.1,26.8,0.1,53.7,0,80.5c0,10.2-5.9,17.7-12,25c-3.4,4.1-4.6,8.4-4.6,13.7c0.2,42,0.1,84,0.1,126c0,12.5,8.8,23.1,20.7,25
			c11.8,1.8,23.4-5.3,27.3-16.9c0.6-1.8,0.9-3.9,0.9-5.8c0.1-43.8,0.2-87.7-0.2-131.5c0-4-2.5-8.6-5.2-11.8
			c-7-8.4-10.8-17.2-10.4-28.6c0.7-24,0.2-48,0.2-72c0-8.7,2.1-11.7,10.3-14.6c11.5-4,19.3-11.4,21.6-23.8c0.3-1.8,0.5-3.6,0.5-5.4
			c0-29.5,0-59,0-88.5c0-1.3-0.1-2.7,0.1-4c0.6-4.2,4.7-7.8,8.1-7.5c3.6,0.3,7.6,4.7,7.6,8.6c0,31.8,0.7,63.7-0.3,95.5
			c-0.6,18.5-11.4,31.4-28.6,38.5c-3.1,1.3-3.8,2.8-3.8,5.9c0.1,24,0.2,48,0,72c-0.1,5.7,3.4,9.4,6.6,12.9
			c7.6,8.4,10.3,18,10.2,29.2c-0.3,39.8,0,79.6-0.2,119.5c0,9.2-1.2,18.2-6.8,26c-9,12.5-21.1,20.8-36.6,19.1
			c-19.8-2.2-37.7-17.3-37.7-40.5C155.7,365.1,155.7,343.2,155.7,321.4z"/>
		<path d="M187.9,54.7c0,13.3,0,26.6,0,39.9c0,1.2,0.1,2.3,0,3.5c-0.4,5.7-3.7,9.4-8.3,9.4c-4.5,0-8-3.8-8.1-9.5
			c-0.2-9.5-0.1-19-0.1-28.5c0-18.8-0.1-37.6,0.1-56.4c0-3,0.9-6.3,2.5-8.8c1.4-2.1,4.8-4.7,6.5-4.2c2.6,0.8,4.8,3.8,6.4,6.4
			c1.1,1.8,1,4.5,1.1,6.8C188,27.1,187.9,40.9,187.9,54.7z"/>
		<path d="M220.3,54.1c0,14.7,0,29.3,0,44c0,6-3.1,9.5-7.9,9.4c-4.7-0.2-7.7-3.7-7.7-9.2c0-29.3-0.1-58.7,0.1-88
			c0-2.3,0.9-5,2.2-6.8c2.1-2.9,5.4-3.6,9-2.5s4.2,4,4.3,7.1c0.1,4.2,0,8.3,0,12.5C220.3,31.8,220.3,42.9,220.3,54.1z"/>
	</g>
</g>
<path class="st0" d="M376,0"/>
</svg>
