<svg id="Layer_1" data-name="Layer 1" xmlns="http://www.w3.org/2000/svg" viewBox="0 0 476.66 334.85"><defs><style>.cls-1{fill:#fff;isolation:isolate;}</style></defs><title>skiing_trek</title><path d="M152.5,321.9H286.8c-4.4-9.7-.1-18.3,2.4-27,4.5-15.4,9.4-30.8,13.9-46.2.5-1.6,0-4.5-1.2-5.5-18.1-16.1-36.5-31.9-54.6-48-7.8-6.9-16.6-12.8-21.2-22.8-5.5-11.9-3.1-28,5.4-37.9,12.9-14.9,25.4-30.2,38.1-45.3,3-3.5,6.1-7,9.6-11l-23.5-8.3c-4.1,10.3-8,20.2-11.9,30.2-2.1,5.4-4,10.9-6.2,16.3-3.7,9-12.6,12.4-21.8,9.4a18.41,18.41,0,0,0-10.4-.2q-95.7,31.65-191.3,63.6c-2.8.9-5.8,2.1-8.6,2.1-1.8,0-3.6-1.9-5.5-3,1.3-2.1,2.1-5.2,3.9-6,6.8-2.7,13.9-4.6,20.9-6.9q70.05-23.25,140.1-46.6c13.7-4.5,27.3-9.1,41.1-13.6.1-15.3,8.1-28.2,12.8-42a304.32,304.32,0,0,1,11.9-29c4.7-10.2,12.2-13.7,22.8-10.7,23.9,7,48,13.5,71.4,21.8,7.9,2.8,15.6,9.2,20.6,16.1,8.5,11.7,14.8,25.1,22,37.8a9.92,9.92,0,0,0,1.3,1.6l20.5-19.6c4.2-4.1,8.2-8.3,12.4-12.3,8.4-7.8,21.8-5.4,26.5,4.8,2.6,5.5,1.8,13.8-3,17.6-10.4,8.3-14.9,19.6-19.1,31.8-21.2,61.1-42.9,122.1-64.4,183.1-.6,1.7-1,3.5-1.7,5.9H452.6c8.1,0,10-1.9,10-10a16.5,16.5,0,0,1,.7-5.9c1.3-3.3,4.2-5.4,7.5-4.1,2.4.9,5.4,3.7,5.6,5.9.6,6.7.4,13.6-3.2,19.9a13.11,13.11,0,0,1-10.9,6.9c-1.5.1-3,0-4.5,0H28.3c-2.8,0-5.9.2-8.3-1-2-.9-4.4-3.7-4.4-5.6s2.4-4.3,4.4-5.6c1.5-1,3.9-.6,5.9-.6h101c1.4,0,2.8-.2,5.4-.4-7.2-5.3-9.5-11.7-9.1-19.5a18.86,18.86,0,0,1,6.8-13.9c15.9-13.6,31.9-27,47.7-40.7,2.6-2.3,4.3-5.8,5.8-9q12.75-27.6,25.3-55.3c1.8-3.9,3.4-7.9,5.3-11.8,1.1-2.4,3.4-3.7,4.5-.5,4.8,13.9,16.6,21.5,26.9,30.6,5,4.4,5.2,4.8,1.8,10.8-9.6,16.7-19.5,33.2-28.7,50.1-4.2,7.6-10.8,12.4-17.1,17.8-13.4,11.6-27.1,22.9-40.6,34.4C158.3,316.9,155.9,319,152.5,321.9ZM334.6,100.4c1.3,2,2.2,3.3,3,4.7,6.2,10.9,12.3,21.7,18.5,32.6,4.5,7.9,9.8,8.4,16.3,2,12.7-12.4,25.8-24.6,38.6-37a60.52,60.52,0,0,0,8.3-9.9c2.4-3.7.9-7.1-3.2-8.8-5.1-2-8.8.7-12.1,3.9-11.8,11.6-23.3,23.3-35,35-.8.8-1.7,1.4-2.8,2.3a18.83,18.83,0,0,1-1.9-2.6C357,110.1,349.9,97.4,342.4,85c-1.6-2.7-4.5-4.6-6.9-6.8-4.7-4.1-9.4-8.2-14.1-12.2-1.5-1.2-3.1-2.6-4.8-3.1-13.9-4.5-27.9-9-42-13.1-8.6-2.5-17.4-4.5-26.2-6.5-5.5-1.3-8.9.3-10.7,4.9C230,67.7,222.5,87.3,215,106.9c-1.9,5-.3,8.9,3.8,10.3,3.9,1.3,7.3-.6,9.3-5.4,2.3-5.6,4.4-11.2,6.5-16.8,4.8-12.2,9.5-24.5,14.4-37.1,16.2,3.9,31.9,7.8,48.4,11.8-1.8,2.4-3.1,4.1-4.4,5.7-7.2,8.8-14.4,17.5-21.5,26.3-9.9,12.3-20,24.5-29.6,37.1-9.9,12.9-8.6,26.4,2.9,36.4,23.1,20.2,46.1,40.6,69.2,60.8,3.6,3.2,4.3,6.5,2.7,11.1q-10.35,28.65-20.2,57.5a26.07,26.07,0,0,0-1.3,7.3c-.1,5.6,2.7,9.2,7.3,9.8,5.4.8,7.3-2.7,8.6-7,7.3-23.9,14.8-47.7,22.1-71.5,2.1-6.8.2-12.8-4.4-18-16.2-18.6-32.3-37.3-48.6-55.8-2.9-3.3-2.9-5.6.1-8.9,14.8-16.2,29.4-32.7,44.1-49C327.7,107.9,330.9,104.4,334.6,100.4Zm-43.9,66.7c16,17.4,31.4,34.8,47.5,51.5,8.3,8.6,9.9,18.3,6.9,28.9-4.3,15.5-9.3,30.8-14,46.2-2.8,9.3-5.6,18.5-8.4,27.9,6,.8,6,.8,7.6-4,1.9-5.5,3.9-11,5.8-16.5q23.1-65.7,46.1-131.3c4.3-12.1,8.5-24.2,12.4-35.2-5.2,4.7-11.2,10-17,15.4-8.1,7.6-18.1,6.7-24.2-2.5-4.5-6.9-8.9-14-13.4-21-2.2-3.4-4.5-6.7-7-10.4C318.8,133.6,304.8,150.2,290.7,167.1Zm-73.5,23.7a8,8,0,0,0-.8,1.6c-7.1,16.2-13.9,32.4-21.3,48.4a44.54,44.54,0,0,1-9.8,13.4c-17.1,15.8-34.6,31.2-52,46.7-3.2,2.9-3.6,5.6-1.1,9.1,3.7,5.2,7.7,5.7,13,1.2,16.6-13.8,33.3-27.6,49.8-41.6a41.18,41.18,0,0,0,8.7-9.5c10.2-17,19.9-34.3,30-51.8-2.5-2.3-5.6-4.8-8.3-7.7S220.2,194.4,217.2,190.8Z"/><path d="M357.5,63.8c-17.4.8-31.5-12.3-31.6-31.2C325.7,12.5,341.4.1,357.3,0c17-.2,31.2,14.6,31.4,32.1C388.8,52.5,371.3,65.3,357.5,63.8ZM337.4,32.6c-.1,11.2,8.3,20.3,18.7,20.4,11.7.1,20.5-8.4,20.6-19.7.1-11-8.2-19.9-18.6-20C346.2,13,337.5,21.2,337.4,32.6Z"/><path class="cls-1" d="M476.66,0"/></svg>