<svg id="Layer_1" data-name="Layer 1" xmlns="http://www.w3.org/2000/svg" viewBox="0 0 376.3 386"><defs><style>.cls-1{fill:#fff;isolation:isolate;}</style></defs><title>skiing</title><path d="M0,206.2c3.9-4,8-3.1,12.3-.7,17.4,9.8,34.8,19.5,52.2,29.3q42.75,23.85,85.4,47.5c3,1.7,5.9,3.4,9.5,5.5.3-4,.3-7.3.8-10.4.9-6.3,3.8-11.5,8.1-16.2,10.8-12,21.3-24.2,32-36.3,2.4-2.8,2.1-4.9-.9-7-16.9-11.8-34.2-23-50.4-35.8-23.1-18.3-32.4-48.4-11.9-75.1a47.06,47.06,0,0,1,3.6-4.2c4.8-5.4,4.8-5.4-1.4-9.5q-33-21.9-66-44c-.8-.6-1.6-1.1-2.5-1.7-3.9-2.8-5-6.5-2.9-9.8s5.9-4.1,10-1.4C95.2,47.9,112.4,59.5,129.6,71c7.7,5.2,15.5,10.3,23.2,15.6,2.8,1.9,4.9,2.1,8,0,22.2-15.1,44.6-30.1,67-45,13.2-8.7,27.3-9.5,41.2-2.3,14.4,7.5,21.4,20.2,21.6,36.2.3,19.8.2,39.7,0,59.5,0,3.8,1.2,6,4.5,8,11.6,7.1,23.1,14.5,34.7,21.7,9,5.6,13.1,15.2,10.8,25.2s-11.1,18-21.1,18.1a27,27,0,0,1-13.7-3.6c-26.2-16.9-52.2-34.3-78.1-51.6-2.4-1.6-4.6-3.2-7.6-1.1s-3.9,3.8-.5,6.4c9.6,7.4,19.1,15,28.7,22.4,5.2,4.1,10.6,8.1,15.8,12.1,9.3,7.2,11.4,20.2,7,31-5.9,14.6-18.1,24-27.5,35.7-9.3,11.5-19.3,22.5-29.3,33.4-5.1,5.6-11,10.5-16.9,16.1,5.9,3.3,12.4,6.9,18.8,10.5,27.7,15.5,55.2,31.5,83.3,46.2,15.4,8.1,32,10.3,48,.1,2.7-1.7,4.9-4.4,7.1-6.9,3.1-3.6,6.8-4.5,10-2s3.4,6.3.7,10.1c-10.6,14.7-31.5,21.7-49,18.4-16.9-3.1-30.8-12.3-45.2-20.2-29.3-16-58.4-32.6-87.5-48.8q-50.7-28.35-101.5-56.5-38-21.15-75.9-42.1c-2.1-1.2-4-2.9-6-4.3C0,210.9,0,208.5,0,206.2Zm187.4,89.4c.2.4.4.8.7,1.3,3.3-1.9,7.3-3.1,9.8-5.7,9.6-10.4,18.7-21.2,28-31.8q14.55-16.5,29.2-32.7c7.1-7.8,7.6-17.8.6-23.4-8.9-7.2-18.1-14.1-27.1-21.1-9.5-7.3-18.9-14.6-28.3-22-4.6-3.6-4.1-9.3,1-12.3,1.3-.8,2.6-1.5,3.9-2.3,4.9-3,5-4.4.3-7.7-15-10.2-30.1-20.2-45.1-30.4-2.5-1.7-4.3-1.4-6.6.5-20.4,16.6-19.6,48.2,5.3,65.5,19.4,13.4,38.7,27,57.9,40.6,4.1,2.9,4.4,6.9,1.1,10.7-5.2,6.1-10.5,12-15.8,18-8.8,10.2-17.7,20.3-26.4,30.6-3.7,4.4-3.5,9.6-1.3,14.6C177,293.4,181.3,296.2,187.4,295.6Zm90.3-186.7c0-10.8.1-21.6,0-32.5-.1-13.2-7-23.2-18.3-27-9.3-3.1-17.7-1.2-25.6,4.1q-30,20.1-59.9,40.3c-3.7,2.5-3.7,4,.1,6.6,15.4,10.4,30.9,20.6,46.3,31.2,2.7,1.8,4.7,1.7,7.2.1,5.9-3.7,11.9-7.2,18-10.7,6.9-4,11.6-1.3,11.8,6.8.2,6,.3,12,0,18-.4,7.7,3,13,9.1,17.1q22.35,14.55,44.6,29.2c5.8,3.9,11.7,3.3,15.3-1.9,3.3-4.9,1.4-11.5-4.2-15-13.4-8.3-26.7-16.8-40.1-25.1a8.53,8.53,0,0,1-4.4-8.3C277.8,130.9,277.7,119.9,277.7,108.9Zm-33.2,40.3V135c-3.9,3.1-6.9,5.5-10.5,8.2C237.8,145.3,241,147.2,244.5,149.2Z"/><path d="M376.3,40.4c-2.3,23.7-18.4,41.5-41.9,41.2-23.9-.3-40.2-18.2-40-40.6.2-25.1,20.4-40.8,42.3-41C355.5-.1,376.6,22,376.3,40.4Zm-68.3.8c0,15.5,11.6,26.9,27.2,26.9,14.9,0,26.6-12,26.5-27.2a26.85,26.85,0,1,0-53.7.3Z"/><path class="cls-1" d="M376.3,0"/></svg>