<?xml version="1.0" encoding="utf-8"?>
<!-- Generator: Adobe Illustrator 21.0.0, SVG Export Plug-In . SVG Version: 6.00 Build 0)  -->
<svg version="1.1" id="Layer_1" xmlns="http://www.w3.org/2000/svg" xmlns:xlink="http://www.w3.org/1999/xlink" x="0px" y="0px"
	 viewBox="0 0 418.1 449.6" style="enable-background:new 0 0 418.1 449.6;" xml:space="preserve">
<style type="text/css">
	.st0{fill:#FFFFFF;enable-background:new    ;}
</style>
<g>
	<g>
		<path d="M206.5,346.9c-3.6,10.5-7.2,20.9-10.7,31.4c-6.1,18.1-12.1,36.3-18.3,54.4c-2.6,7.5-6.8,9.4-14.3,7.1
			c-16.4-5.1-32.8-10.1-49.1-15.2c-10.6-3.3-12.1-6.5-8.5-16.9c19.9-57.4,39.7-114.9,59.3-172.4c1.2-3.6,1.2-8.4,0-12.1
			c-18.5-54.5-37.3-109-56.2-163.3c-4.1-11.7-5.9-23.1-1.1-35c7.7-18.8,28.9-27.6,47.6-19.4c12.4,5.4,21.2,14,25.5,27.1
			c5.5,16.6,11.4,33,17,49.6c3,8.9,5.6,18,8.4,27c0.4,1.4,1,2.7,2.1,5.4c3.1-9.4,5.9-17.4,8.5-25.5c3.5-10.9,6.6-21.9,10.3-32.8
			c4-11.8,7.7-23.9,13.2-35C246.5,8.5,257.7,0.6,272.4,0c16-0.7,31.7,12.6,36.9,28.7c4.2,13.1,0.2,24.8-4,36.9
			C287,117.7,268.9,170,250.6,222.1c-1.9,5.3-1.6,10.3,0.2,15.6c15.7,45.7,31.2,91.3,46.9,137c4,11.8,8.2,23.6,12.4,35.3
			c2.3,6.6,0.3,11-6.2,13.5c-17.1,6.5-34.2,13.1-51.4,19.5c-7.6,2.8-11.4,0.8-14-7c-9.4-27.7-18.7-55.4-28.2-83.1
			c-0.7-2-1.6-4-2.4-6C207.5,346.9,207,346.9,206.5,346.9z M140.9,20.8c-4.7-0.1-9.7,0.7-13.4,5.1c-6.3,7.5-5.9,16.2-3.2,24.6
			c8.2,25.1,17.1,50.1,25.7,75.1c19,55.2,38,110.4,57.1,165.6c14.5,42,28.9,84,43.4,126c1.7,4.9,4.5,6.2,9.8,4.2
			c7.8-2.9,15.6-5.9,23.3-8.9c5.6-2.1,6.8-4.7,4.9-10.4c-5.3-15.6-10.6-31.2-15.9-46.8C254.8,303.2,237,251.1,219.2,199
			c-18.4-54-36.8-108-55.3-162.1C160.7,27.5,151.3,20.8,140.9,20.8z M238.6,204.2c1.2-3.1,2.1-5,2.7-7c4-11.9,7.9-23.8,12-35.7
			c12.6-36.5,25.6-72.8,37.8-109.4c1.9-5.7,1.8-12.6,0.8-18.6c-1.8-10.6-13.8-17.8-23.5-14.6c-7.7,2.5-12.7,8.2-15.4,15.9
			c-11.1,31.9-22,63.8-33.2,95.7c-2,5.8-1.9,11.2,0.1,17c3.5,10,6.3,20.3,9.6,30.4C232.3,186.3,235.3,194.6,238.6,204.2z
			 M176.9,255.4c-0.4,0-0.8,0-1.3,0c-0.5,1.2-1,2.4-1.4,3.7c-3.6,11.5-6.9,23.1-10.7,34.5c-6.5,19.6-13.4,39-20.1,58.5
			c-5.7,16.4-11.4,32.7-17,49.1c-2.1,6.1-0.7,8.6,5.3,10.4c7.6,2.3,15.3,4.7,22.9,7.1c6.4,2,8.5,0.9,10.6-5.1
			c10.3-29.5,20.8-59,30.8-88.7c1.2-3.6,0.7-8.2-0.2-12.1c-1.4-6-3.7-11.7-5.7-17.6C185.8,281.9,181.3,268.6,176.9,255.4z"/>
		<path d="M387.5,204.8c0,62.6,0,125.3,0,187.9c0,7.2,0.1,7.4,7.1,7.2c4.8-0.1,9.8-1.2,14.4-0.4c3.2,0.5,6.8,3,8.5,5.6
			c1.2,2,0.3,6.4-1.2,8.5c-1.5,2-5,3-7.8,3.3c-4.8,0.5-9.6,0.1-14.5,0.2c-5.6,0.1-6.7,1.1-6.6,6.8c0,4,0.4,8,0.4,12
			c0,2.1-0.1,4.4-0.6,6.4c-1.2,4.5-4.3,7.2-9,7.3c-4.2,0.1-8-3.6-8.3-8.5c-0.4-6-0.1-12-0.2-18c-0.1-6.2-0.5-6.6-6.5-6.5
			c-5.5,0.1-11,0.5-16.5,0.5c-6.4,0.1-10.6-3.5-10.8-8.7c-0.2-5.1,4.1-9.2,10.4-9.3c6-0.2,12,0,18,0.3c4.3,0.2,5.8-1.3,5.8-5.8
			c-0.3-125.1-0.5-250.2-0.7-375.3c0-2.3,0-4.7,0.5-6.9c1-4.6,4-7.6,8.7-7.6c4.6,0,7.7,3,8.7,7.6c0.5,2.4,0.6,5,0.6,7.4
			c0,62,0,124,0,185.9C387.7,204.8,387.6,204.8,387.5,204.8z"/>
		<path d="M51.9,400.3c7.3,0,14.4-0.1,21.6,0c5.8,0.1,9.3,3.3,9.2,8.2c-0.1,5.3-4.4,8.4-10.3,8.2c-6.8-0.3-13.6-0.1-21-0.1
			c0,8.2,0,16.1,0,24c0,3.9-1.8,7.2-5.5,8c-2.7,0.6-6.3,0-8.6-1.5c-1.8-1.1-2.8-4.5-3-6.9c-0.4-6-0.4-12-0.1-18
			c0.2-3.9-1.1-5.4-5.1-5.2c-6.3,0.3-12.7,0.4-19,0.2c-6.4-0.2-10.9-4.8-10-10c0.7-4.3,3.2-6.8,7.9-6.7c8.3,0.1,16.6,0,26.1,0
			c0-3.4,0-6.3,0-9.2c-0.2-124-0.4-248-0.6-372c0-2.3-0.1-4.7,0.2-7c0.7-4.9,4.6-8.7,8.9-8.8c4.2-0.1,8.2,3.6,9,8.5
			c0.4,2.1,0.4,4.3,0.4,6.5c0,117.3,0,234.7,0,352C51.9,380.4,51.9,390,51.9,400.3z"/>
	</g>
</g>
<path class="st0" d="M418.1,0"/>
</svg>
