<?xml version="1.0" encoding="utf-8"?>
<!-- Generator: Adobe Illustrator 21.0.0, SVG Export Plug-In . SVG Version: 6.00 Build 0)  -->
<svg version="1.1" id="Layer_1" xmlns="http://www.w3.org/2000/svg" xmlns:xlink="http://www.w3.org/1999/xlink" x="0px" y="0px"
	 viewBox="0 0 465.3 351.5" style="enable-background:new 0 0 465.3 351.5;" xml:space="preserve">
<style type="text/css">
	.st0{fill:#FFFFFF;enable-background:new    ;}
</style>
<g>
	<g>
		<path d="M0,126.4c2.3-4,5.5-5.4,10.4-4.8c13.2,1.7,26.5,2.8,39.7,4.3c2.6,0.3,5,1.4,6.6,1.8c3.9-10.3,7.8-20.7,11.4-30.3
			c-10.8-7.9-22.3-16.2-33.7-24.5c-1.9-1.4-3.7-2.8-5.6-4.2c-3.2-2.5-4.1-5.6-2.1-9.2c2.2-3.8,5.7-4.2,9-2.2
			c5.7,3.4,11.2,7.2,16.7,10.9c5.2,3.5,10.5,7,15.6,10.8c3,2.2,5.6,5,8.1,7.3c8.5-6.9,17.3-13.8,25.3-20.3
			c-3.5-7.2-7-14.3-10.4-21.6c-3.1-6.6-6.3-13.2-9-20c-1-2.5-1.3-5.6-0.8-8.2c0.7-4.4,6.4-6.4,9.8-3.5c2.2,1.9,4,4.5,5.2,7.1
			c4.7,9.9,9.3,19.9,13.6,29.9c1.5,3.6,2.3,7.5,3.3,10.9c10.9-1.8,22.3-3.7,32.7-5.4c0.5-7.9,1-16.5,1.7-25c0.5-6.8,1.1-13.6,2-20.4
			c0.3-2.5,1.3-5.3,2.8-7.2c3.7-4.5,10.1-2.9,11.6,2.7c0.4,1.6,0.5,3.3,0.4,5c-1.2,13.4-2.4,26.9-3.8,40.3c-0.2,2.2-1.6,4.3-2.3,6.1
			c10.6,3.9,21.3,7.8,31.9,11.8c8.5-12.3,17.4-25.2,26.4-38.1c2.2-3.1,4.7-6.4,9.4-4.6c4.7,1.8,6,7.1,2.6,12.2
			c-5.7,8.6-11.6,17-17.5,25.5c-1.6,2.3-3,4.9-4.9,6.9c-2.4,2.4-5.4,4.2-8.1,6.2c-0.9,2.6-1.4,6.2-3.4,8.6c-1.1,1.4-4.6,1.4-6.9,1.1
			c-1.8-0.2-3.4-1.9-5.1-3c-23.4-14.8-48-17-72.4-3.8c-19.1,10.4-33.5,26-37.5,48.5c-2.7,15.5-1.3,30.8,6.1,45.2
			c0.8,1.5,1.5,3,2.1,4.5c1.4,3.3,0.9,6.3-2.1,8.4c-2.9,2-5.9,1.9-8.6-0.8c-0.8-0.8-1.7-1.6-1.6-1.5c-5.6,3.1-10.7,6.3-16.2,8.8
			c-9.6,4.5-19.3,8.8-29.2,12.8c-4.5,1.8-8.3,0-10-3.8c-1.4-3.2,0.3-7.7,4.3-9.5c13-5.9,26.1-11.6,39.2-17.1
			c1.8-0.8,4.2-0.1,5.7-0.1c-2.4-11.5-4.8-23.1-7.1-34.5c-15.8,0.6-31.9-2.4-48.1-4.6c-2.6-0.3-4.8-3.5-7.2-5.4
			C0,129.1,0,127.7,0,126.4z"/>
		<path d="M252.9,351.4c-39.7,0-79.3-0.3-119,0.1c-33.6,0.3-72.8-24.5-82.4-63.6c-6.9-28.2-0.3-53.6,19.4-75
			c18.5-20.1,41.9-29.3,69.1-28.8c4.7,0.1,6.1-1.3,7.1-5.8c5.2-23.3,17.2-43.1,33.8-60c15-15.3,32.6-27.1,53.5-32.5
			c11.4-3,23.6-4.2,35.5-4.2c23.4,0,45.3,6.2,64.8,19.6c20.3,14,35.9,31.9,45.8,54.7c0.6,1.5,2.5,3.2,4.1,3.5
			c37.6,7.1,64.4,28.5,75.6,64.6c16.3,52.7-7.4,102-59.9,122.4c-9.2,3.6-18.9,5-28.8,5C331.8,351.3,292.4,351.4,252.9,351.4z
			 M364.7,158.2c-0.1-1.5,0-1.8-0.2-2.1c-0.3-0.8-0.7-1.5-1.1-2.2c-18.1-30.2-43.2-50.4-78.8-56.2c-26.6-4.3-51.6-0.2-73.9,14.9
			c-24.6,16.6-42,38.9-49.2,68.4c-1.1,4.7,0.7,5.4,4.3,6.8c7.8,3.2,15.5,6.8,22.9,10.8c4.2,2.3,4.8,7.8,2.4,11.4
			c-2.2,3.2-6.7,3.9-10.7,1c-12.3-9.1-26.3-11.9-41.3-12.3c-21.5-0.5-40,7.4-55.4,21.4c-24.2,22.1-26.6,63.3-6.1,88.8
			c15.9,19.9,37.3,28.1,62.2,28.1c75.8,0,151.7,0.2,227.5-0.2c8.8,0,18-1.5,26.4-4.3c46.7-15.5,69.1-66.1,49.6-110.6
			c-18.1-41.3-60.4-59.1-103.7-43.4c-11.7,4.3-21.1,11.8-29.9,20.3c-2,1.9-4.9,3.8-7.5,3.9c-2,0.1-5.5-2.4-5.8-4.1
			c-0.4-2.9,0.3-6.9,2.1-8.9c15.3-16.8,34.2-27.1,56.8-30.2C358.4,159.1,361.5,158.7,364.7,158.2z"/>
	</g>
</g>
<path class="st0" d="M465.3,0"/>
</svg>
