<svg id="Layer_1" data-name="Layer 1" xmlns="http://www.w3.org/2000/svg" viewBox="0 0 400.63 424.56"><defs><style>.cls-1{isolation:isolate;}</style></defs><title>webcam</title><path d="M8.41,426.18c-7.3-2.8-8.3-4.4-8.4-12.5-.2-22.5,5.5-43.6,14.8-64,9.9-21.7,23.9-40.3,40.7-57,5-5,10.1-4.6,15.8,0,12.2,9.9,23.8,20.8,37.2,28.9,32.2,19.3,67.4,26.9,105.1,24.2,19.2-1.3,37.6-5.3,55-12.8,12.4-5.3,24.1-12.5,35.3-20,8.9-5.9,16.6-13.5,24.8-20.5,5.6-4.8,10.5-4.8,15.8.5a210.64,210.64,0,0,1,31,38.7,169.29,169.29,0,0,1,25.1,81.4c.3,6.5-1.8,10.6-9.2,13.1Zm9.5-19.2h364.9c-2.3-10.5-3.7-20.6-6.8-30.1a161,161,0,0,0-12.7-29.5c-5.8-10.3-13.2-19.7-20.1-29.4-1.8-2.5-4.2-5.9-6.6-6.2-2.2-.2-4.7,3.4-7.2,5.1-8.6,6.1-16.7,13-25.9,18-13.5,7.4-27.2,14.7-41.7,19.7a182.88,182.88,0,0,1-69.3,9.7c-20.8-1-41.3-4.2-60.8-12a245.24,245.24,0,0,1-27.1-12.4,228.71,228.71,0,0,1-23.7-15.4c-6-4.2-11.5-9.1-17.7-14.1C37.71,337.58,21.31,368.88,17.91,407Z" transform="translate(0 -1.62)"/><path d="M363.11,165.38c0,90.4-73.8,163-163.2,163.1S36.71,254.68,37,164.88c.3-91.8,76.3-165.7,166.9-163.2C290.51,4,362.71,73.48,363.11,165.38Zm-163.8,145.1c79.2-.2,143.3-61.8,145.8-140.6a144.48,144.48,0,0,0-140.7-149.8c-82.8-2.2-147,61.9-149.5,140.3C52.21,242.18,116.31,309.18,199.31,310.48Z" transform="translate(0 -1.62)"/><path d="M200.41,106.08c35,.7,62.7,28.1,62.6,63.4-.1,35-27.9,62.8-63.4,62.6-36.1-.3-62.7-28.8-62.6-62.9C137,133.48,165.21,106.28,200.41,106.08Zm44.2,63c1.1-25.2-20.7-45-44.7-44.8-24.5.2-44.7,19.2-44.8,45.1,0,25,20.7,44.7,44.9,44.8C223.51,214.28,245.91,194,244.61,169.08Z" transform="translate(0 -1.62)"/><path d="M218.11,133.08a18.32,18.32,0,0,1,18,18c.1,9.6-8.3,18.2-18,18.2a18.18,18.18,0,0,1-18.2-18.4A18.39,18.39,0,0,1,218.11,133.08Z" transform="translate(0 -1.62)"/><path class="cls-1" d="M400.63,0" transform="translate(0 -1.62)"/></svg>