<?xml version="1.0" encoding="utf-8"?>
<!-- Generator: Adobe Illustrator 21.0.0, SVG Export Plug-In . SVG Version: 6.00 Build 0)  -->
<svg version="1.1" id="Layer_1" xmlns="http://www.w3.org/2000/svg" xmlns:xlink="http://www.w3.org/1999/xlink" x="0px" y="0px"
	 viewBox="0 0 354.8 362.6" style="enable-background:new 0 0 354.8 362.6;" xml:space="preserve">
<style type="text/css">
	.st0{enable-background:new    ;}
</style>
<g>
	<g>
		<path d="M248.4,234.3c2.8,2.3,6.5,4.7,9.5,7.7c31.4,31.2,62.7,62.6,94.1,93.8c3.2,3.2,4,5.2,0.2,8.6c-5.6,4.9-10.9,10.3-15.9,15.9
			c-2.8,3.1-4.6,3-7.5,0c-25.8-26-51.8-51.9-77.7-77.8c-7.9-7.9-15.9-15.7-23.6-23.7c-2.4-2.4-4.1-2.9-7.2-0.8
			c-17.4,11.5-36.2,19.6-57,22.4c-22.7,3-45.4,2.3-67-5.6c-42.1-15.4-71.5-44.3-87.5-86.5C2.2,170.8-1.3,152.6,0.4,134
			C2.1,115.8,6,98,14.2,81.3C21.3,67,29.9,53.9,41,42.6c18.1-18.2,39.6-31.1,64.8-37.5c14.1-3.6,28.4-6,42.9-4.8
			c33.1,2.7,62.7,13.9,87.4,36.8c26.1,24.1,42.1,53.6,46,88.7c3.3,30.3-3.3,59.2-18.6,85.7C259.4,218.8,254.3,225.6,248.4,234.3z
			 M265.2,141.1C264.9,72.7,210.4,20.7,147.7,18C75.2,14.9,17.3,72.5,18.5,143.8c1.1,65.7,54.5,120.6,123,120.7
			C209.9,264.8,264.9,209.8,265.2,141.1z"/>
		<path d="M150.5,132.5c2.9,0,5,0,7.1,0c15.2,0,30.3,0.1,45.5-0.1c3.7,0,5.1,1,4.9,4.8c-0.3,4.1-0.1,8.2-0.1,12.9
			c-19.3,0-37.9,0-57.1,0c0,19.2,0,37.9,0,57.3c-5.5,0-10.3,0.3-15-0.2c-1.1-0.1-2.7-2.9-2.7-4.5c-0.2-15.5-0.1-31-0.1-46.5
			c0-1.8,0-3.6,0-6c-4.2,0-7.8,0-11.4,0c-13.5,0-27-0.1-40.5,0.1c-4,0.1-5.5-0.9-5.5-5.2c0.1-12.6-0.1-12.6,12.6-12.6
			c14.6,0,29.3,0,44.6,0c0-19.4,0-38.5,0-57.8c6.2,0,11.6,0,17.8,0C150.5,93.8,150.5,112.9,150.5,132.5z"/>
	</g>
</g>
<path class="st0" d="M354.8,0"/>
</svg>
