<svg id="Layer_1" data-name="Layer 1" xmlns="http://www.w3.org/2000/svg" viewBox="0 0 354.83 362.68"><defs><style>.cls-1{isolation:isolate;}</style></defs><title>zoom_out</title><path d="M143.9,0c33.9,1.8,65.9,12.8,92.5,37.5,25,23.1,40.9,51.4,45.2,84.9,5,39.4-5.4,75.5-30.2,106.9-2.7,3.4-1.8,4.8.6,7.2q49.65,49.5,99.3,99.2c4.7,4.7,4.7,4.7,0,9.5s-9.9,9.4-14.4,14.6c-3.3,3.7-5.3,3.9-9,.2q-49.05-49.5-98.5-98.7c-6.6-6.6-4.9-5.8-11.7-1.4-26.7,17.3-56,24.1-87.4,22-29.6-2-55.7-13.1-78.5-32C25.4,228,9.5,199.9,2.4,166.6-1.8,147.2-.1,128,4.5,108.7A139.8,139.8,0,0,1,32.4,52.6,135.67,135.67,0,0,1,83.2,13.4C101.9,4.7,121.6.5,143.9,0Zm-2.4,18C74.6,17.8,17.2,71.9,18.3,143.9a123.38,123.38,0,0,0,246.7-.3C266.4,73.7,209,17.5,141.5,18Z"/><path d="M207.3,133.5v15.2H75.7V133.5Z"/><path class="cls-1" d="M355.6,0"/></svg>